<mxfile host="app.diagrams.net" modified="2020-06-01T12:58:05.284Z" agent="5.0 (Windows NT 10.0; Win64; x64) AppleWebKit/537.36 (KHTML, like Gecko) Chrome/80.0.3987.132 Safari/537.36" etag="jT8tPVq-BrQw7mhsKpLu" version="13.1.11" type="github" pages="4">
  <diagram id="Q58Rf40tK8kcKd59PBGZ" name="Page-1">
    <mxGraphModel dx="1422" dy="715" grid="1" gridSize="10" guides="1" tooltips="1" connect="1" arrows="1" fold="1" page="1" pageScale="1" pageWidth="827" pageHeight="1169" math="0" shadow="0">
      <root>
        <mxCell id="0" />
        <mxCell id="1" parent="0" />
        <mxCell id="sxlbJ4H0Vbx3y42RLdyf-1" value="員工帳戶" style="rounded=0;whiteSpace=wrap;html=1;" parent="1" vertex="1">
          <mxGeometry x="425" y="210" width="120" height="60" as="geometry" />
        </mxCell>
        <mxCell id="sxlbJ4H0Vbx3y42RLdyf-2" value="" style="endArrow=none;html=1;exitX=0.5;exitY=0;exitDx=0;exitDy=0;entryX=0.542;entryY=1;entryDx=0;entryDy=0;entryPerimeter=0;" parent="1" source="sxlbJ4H0Vbx3y42RLdyf-6" edge="1">
          <mxGeometry width="50" height="50" relative="1" as="geometry">
            <mxPoint x="445" y="690" as="sourcePoint" />
            <mxPoint x="475.03999999999996" y="540" as="targetPoint" />
          </mxGeometry>
        </mxCell>
        <mxCell id="sxlbJ4H0Vbx3y42RLdyf-3" value="" style="endArrow=none;html=1;entryX=0.75;entryY=1;entryDx=0;entryDy=0;exitX=0.5;exitY=0;exitDx=0;exitDy=0;" parent="1" source="sxlbJ4H0Vbx3y42RLdyf-10" edge="1">
          <mxGeometry width="50" height="50" relative="1" as="geometry">
            <mxPoint x="580" y="700" as="sourcePoint" />
            <mxPoint x="500" y="540" as="targetPoint" />
          </mxGeometry>
        </mxCell>
        <mxCell id="sxlbJ4H0Vbx3y42RLdyf-4" value="" style="endArrow=none;html=1;exitX=0;exitY=0;exitDx=0;exitDy=0;entryX=0.918;entryY=1.003;entryDx=0;entryDy=0;entryPerimeter=0;" parent="1" source="sxlbJ4H0Vbx3y42RLdyf-33" edge="1">
          <mxGeometry width="50" height="50" relative="1" as="geometry">
            <mxPoint x="627.4300000000001" y="652.1600000000001" as="sourcePoint" />
            <mxPoint x="520.1600000000001" y="540.1800000000001" as="targetPoint" />
          </mxGeometry>
        </mxCell>
        <mxCell id="sxlbJ4H0Vbx3y42RLdyf-5" value="" style="endArrow=none;html=1;entryX=0.25;entryY=1;entryDx=0;entryDy=0;exitX=1;exitY=0;exitDx=0;exitDy=0;" parent="1" source="sxlbJ4H0Vbx3y42RLdyf-7" edge="1">
          <mxGeometry width="50" height="50" relative="1" as="geometry">
            <mxPoint x="334.6777227507797" y="645.8174007179426" as="sourcePoint" />
            <mxPoint x="440" y="540" as="targetPoint" />
          </mxGeometry>
        </mxCell>
        <mxCell id="sxlbJ4H0Vbx3y42RLdyf-6" value="金額" style="ellipse;whiteSpace=wrap;html=1;" parent="1" vertex="1">
          <mxGeometry x="326" y="717.84" width="70" height="40" as="geometry" />
        </mxCell>
        <mxCell id="sxlbJ4H0Vbx3y42RLdyf-7" value="&lt;u&gt;項目名稱&lt;/u&gt;" style="ellipse;whiteSpace=wrap;html=1;" parent="1" vertex="1">
          <mxGeometry x="277" y="621.4599999999999" width="70" height="40" as="geometry" />
        </mxCell>
        <mxCell id="sxlbJ4H0Vbx3y42RLdyf-8" value="" style="endArrow=none;html=1;entryX=0.224;entryY=0.911;entryDx=0;entryDy=0;exitX=0.5;exitY=0;exitDx=0;exitDy=0;entryPerimeter=0;" parent="1" source="sxlbJ4H0Vbx3y42RLdyf-9" target="sxlbJ4H0Vbx3y42RLdyf-10" edge="1">
          <mxGeometry width="50" height="50" relative="1" as="geometry">
            <mxPoint x="530" y="750" as="sourcePoint" />
            <mxPoint x="585.9200000000001" y="708.6400000000001" as="targetPoint" />
          </mxGeometry>
        </mxCell>
        <mxCell id="sxlbJ4H0Vbx3y42RLdyf-9" value="簽約日期" style="ellipse;whiteSpace=wrap;html=1;" parent="1" vertex="1">
          <mxGeometry x="435" y="760" width="70" height="40" as="geometry" />
        </mxCell>
        <mxCell id="sxlbJ4H0Vbx3y42RLdyf-10" value="日期" style="ellipse;whiteSpace=wrap;html=1;" parent="1" vertex="1">
          <mxGeometry x="505" y="670" width="70" height="40" as="geometry" />
        </mxCell>
        <mxCell id="sxlbJ4H0Vbx3y42RLdyf-11" value="" style="endArrow=none;html=1;exitX=0.5;exitY=0;exitDx=0;exitDy=0;entryX=0.5;entryY=1;entryDx=0;entryDy=0;" parent="1" source="sxlbJ4H0Vbx3y42RLdyf-12" target="sxlbJ4H0Vbx3y42RLdyf-10" edge="1">
          <mxGeometry width="50" height="50" relative="1" as="geometry">
            <mxPoint x="610" y="750" as="sourcePoint" />
            <mxPoint x="575" y="710" as="targetPoint" />
          </mxGeometry>
        </mxCell>
        <mxCell id="sxlbJ4H0Vbx3y42RLdyf-12" value="工程起始&lt;br&gt;日期" style="ellipse;whiteSpace=wrap;html=1;" parent="1" vertex="1">
          <mxGeometry x="505" y="790" width="70" height="40" as="geometry" />
        </mxCell>
        <mxCell id="sxlbJ4H0Vbx3y42RLdyf-13" value="" style="endArrow=none;html=1;exitX=0.296;exitY=0.04;exitDx=0;exitDy=0;exitPerimeter=0;" parent="1" source="sxlbJ4H0Vbx3y42RLdyf-48" target="sxlbJ4H0Vbx3y42RLdyf-10" edge="1">
          <mxGeometry width="50" height="50" relative="1" as="geometry">
            <mxPoint x="680" y="700" as="sourcePoint" />
            <mxPoint x="725" y="660" as="targetPoint" />
          </mxGeometry>
        </mxCell>
        <mxCell id="sxlbJ4H0Vbx3y42RLdyf-16" value="&lt;u&gt;員工編號&lt;/u&gt;" style="ellipse;whiteSpace=wrap;html=1;" parent="1" vertex="1">
          <mxGeometry x="329" y="150" width="70" height="40" as="geometry" />
        </mxCell>
        <mxCell id="sxlbJ4H0Vbx3y42RLdyf-17" value="" style="endArrow=none;html=1;exitX=0.25;exitY=0;exitDx=0;exitDy=0;entryX=1;entryY=1;entryDx=0;entryDy=0;" parent="1" source="sxlbJ4H0Vbx3y42RLdyf-1" target="sxlbJ4H0Vbx3y42RLdyf-16" edge="1">
          <mxGeometry width="50" height="50" relative="1" as="geometry">
            <mxPoint x="589.5799999999999" y="190" as="sourcePoint" />
            <mxPoint x="589.5799999999999" y="100" as="targetPoint" />
          </mxGeometry>
        </mxCell>
        <mxCell id="sxlbJ4H0Vbx3y42RLdyf-18" value="" style="endArrow=none;html=1;entryX=0.707;entryY=0.945;entryDx=0;entryDy=0;exitX=0.417;exitY=0;exitDx=0;exitDy=0;exitPerimeter=0;entryPerimeter=0;" parent="1" source="sxlbJ4H0Vbx3y42RLdyf-1" target="sxlbJ4H0Vbx3y42RLdyf-38" edge="1">
          <mxGeometry width="50" height="50" relative="1" as="geometry">
            <mxPoint x="480" y="210" as="sourcePoint" />
            <mxPoint x="410" y="150" as="targetPoint" />
          </mxGeometry>
        </mxCell>
        <mxCell id="sxlbJ4H0Vbx3y42RLdyf-19" value="" style="endArrow=none;html=1;entryX=0.5;entryY=1;entryDx=0;entryDy=0;exitX=0.5;exitY=0;exitDx=0;exitDy=0;" parent="1" source="sxlbJ4H0Vbx3y42RLdyf-1" target="sxlbJ4H0Vbx3y42RLdyf-37" edge="1">
          <mxGeometry width="50" height="50" relative="1" as="geometry">
            <mxPoint x="490" y="210" as="sourcePoint" />
            <mxPoint x="485" y="140" as="targetPoint" />
          </mxGeometry>
        </mxCell>
        <mxCell id="sxlbJ4H0Vbx3y42RLdyf-20" value="" style="endArrow=none;html=1;entryX=1;entryY=1;entryDx=0;entryDy=0;exitX=0;exitY=0;exitDx=0;exitDy=0;" parent="1" source="sxlbJ4H0Vbx3y42RLdyf-21" target="sxlbJ4H0Vbx3y42RLdyf-10" edge="1">
          <mxGeometry width="50" height="50" relative="1" as="geometry">
            <mxPoint x="685" y="740.86" as="sourcePoint" />
            <mxPoint x="705.251262658471" y="695.0021356237309" as="targetPoint" />
          </mxGeometry>
        </mxCell>
        <mxCell id="sxlbJ4H0Vbx3y42RLdyf-21" value="完工日期" style="ellipse;whiteSpace=wrap;html=1;" parent="1" vertex="1">
          <mxGeometry x="630" y="742.84" width="70" height="40" as="geometry" />
        </mxCell>
        <mxCell id="sxlbJ4H0Vbx3y42RLdyf-22" value="" style="endArrow=none;html=1;exitX=0.5;exitY=0;exitDx=0;exitDy=0;entryX=0;entryY=1;entryDx=0;entryDy=0;" parent="1" source="sxlbJ4H0Vbx3y42RLdyf-23" target="sxlbJ4H0Vbx3y42RLdyf-6" edge="1">
          <mxGeometry width="50" height="50" relative="1" as="geometry">
            <mxPoint x="346" y="871.11" as="sourcePoint" />
            <mxPoint x="350" y="767.84" as="targetPoint" />
          </mxGeometry>
        </mxCell>
        <mxCell id="sxlbJ4H0Vbx3y42RLdyf-23" value="實際金額" style="ellipse;whiteSpace=wrap;html=1;" parent="1" vertex="1">
          <mxGeometry x="280" y="767.84" width="70" height="40" as="geometry" />
        </mxCell>
        <mxCell id="sxlbJ4H0Vbx3y42RLdyf-24" value="" style="endArrow=none;html=1;exitX=0.5;exitY=0;exitDx=0;exitDy=0;entryX=0.738;entryY=0.942;entryDx=0;entryDy=0;entryPerimeter=0;" parent="1" source="sxlbJ4H0Vbx3y42RLdyf-25" target="sxlbJ4H0Vbx3y42RLdyf-6" edge="1">
          <mxGeometry width="50" height="50" relative="1" as="geometry">
            <mxPoint x="416" y="881.11" as="sourcePoint" />
            <mxPoint x="367.30999999999995" y="756.16" as="targetPoint" />
          </mxGeometry>
        </mxCell>
        <mxCell id="sxlbJ4H0Vbx3y42RLdyf-25" value="金額範圍" style="ellipse;whiteSpace=wrap;html=1;dashed=1;" parent="1" vertex="1">
          <mxGeometry x="355" y="770.6800000000001" width="70" height="37.16" as="geometry" />
        </mxCell>
        <mxCell id="sxlbJ4H0Vbx3y42RLdyf-26" value="" style="endArrow=none;html=1;entryX=1;entryY=1;entryDx=0;entryDy=0;exitX=0.231;exitY=0.073;exitDx=0;exitDy=0;exitPerimeter=0;" parent="1" source="sxlbJ4H0Vbx3y42RLdyf-27" target="sxlbJ4H0Vbx3y42RLdyf-33" edge="1">
          <mxGeometry width="50" height="50" relative="1" as="geometry">
            <mxPoint x="749.6777227507796" y="597.2774007179427" as="sourcePoint" />
            <mxPoint x="515" y="481.46000000000004" as="targetPoint" />
          </mxGeometry>
        </mxCell>
        <mxCell id="sxlbJ4H0Vbx3y42RLdyf-27" value="詳細" style="ellipse;whiteSpace=wrap;html=1;" parent="1" vertex="1">
          <mxGeometry x="690" y="626.46" width="70" height="35" as="geometry" />
        </mxCell>
        <mxCell id="sxlbJ4H0Vbx3y42RLdyf-28" value="使用者" style="rounded=0;whiteSpace=wrap;html=1;" parent="1" vertex="1">
          <mxGeometry x="40" y="210" width="120" height="60" as="geometry" />
        </mxCell>
        <mxCell id="sxlbJ4H0Vbx3y42RLdyf-29" value="登入" style="rhombus;whiteSpace=wrap;html=1;" parent="1" vertex="1">
          <mxGeometry x="247" y="210" width="100" height="60" as="geometry" />
        </mxCell>
        <mxCell id="sxlbJ4H0Vbx3y42RLdyf-30" value="" style="shape=link;html=1;exitX=0.973;exitY=0.503;exitDx=0;exitDy=0;entryX=0;entryY=0.5;entryDx=0;entryDy=0;exitPerimeter=0;" parent="1" source="sxlbJ4H0Vbx3y42RLdyf-29" target="sxlbJ4H0Vbx3y42RLdyf-1" edge="1">
          <mxGeometry width="50" height="50" relative="1" as="geometry">
            <mxPoint x="329.03" y="240" as="sourcePoint" />
            <mxPoint x="380.9699999999998" y="304.98" as="targetPoint" />
          </mxGeometry>
        </mxCell>
        <mxCell id="sxlbJ4H0Vbx3y42RLdyf-31" value="1" style="text;html=1;align=center;verticalAlign=middle;resizable=0;points=[];labelBackgroundColor=#ffffff;" parent="1" vertex="1" connectable="0">
          <mxGeometry x="252.99713893182468" y="220.0042693793481" as="geometry">
            <mxPoint x="-13.55" y="1.12" as="offset" />
          </mxGeometry>
        </mxCell>
        <mxCell id="sxlbJ4H0Vbx3y42RLdyf-32" value="1" style="text;html=1;align=center;verticalAlign=middle;resizable=0;points=[];labelBackgroundColor=#ffffff;" parent="1" vertex="1" connectable="0">
          <mxGeometry x="362.9971389318247" y="220.0042693793481" as="geometry">
            <mxPoint x="-13.55" y="1.12" as="offset" />
          </mxGeometry>
        </mxCell>
        <mxCell id="sxlbJ4H0Vbx3y42RLdyf-33" value="項目內容" style="ellipse;whiteSpace=wrap;html=1;" parent="1" vertex="1">
          <mxGeometry x="580" y="576.46" width="70" height="35" as="geometry" />
        </mxCell>
        <mxCell id="sxlbJ4H0Vbx3y42RLdyf-34" value="合作項目" style="rounded=0;whiteSpace=wrap;html=1;" parent="1" vertex="1">
          <mxGeometry x="425" y="480" width="120" height="60" as="geometry" />
        </mxCell>
        <mxCell id="sxlbJ4H0Vbx3y42RLdyf-35" value="" style="endArrow=none;html=1;entryX=0.64;entryY=0.979;entryDx=0;entryDy=0;exitX=0.231;exitY=0.073;exitDx=0;exitDy=0;exitPerimeter=0;entryPerimeter=0;" parent="1" source="sxlbJ4H0Vbx3y42RLdyf-36" target="sxlbJ4H0Vbx3y42RLdyf-33" edge="1">
          <mxGeometry width="50" height="50" relative="1" as="geometry">
            <mxPoint x="719.7577227507797" y="602.4874007179427" as="sourcePoint" />
            <mxPoint x="609.9988256958569" y="611.4587359596007" as="targetPoint" />
          </mxGeometry>
        </mxCell>
        <mxCell id="sxlbJ4H0Vbx3y42RLdyf-36" value="簡易" style="ellipse;whiteSpace=wrap;html=1;" parent="1" vertex="1">
          <mxGeometry x="630" y="656.46" width="70" height="35" as="geometry" />
        </mxCell>
        <mxCell id="sxlbJ4H0Vbx3y42RLdyf-37" value="身分權限" style="ellipse;whiteSpace=wrap;html=1;" parent="1" vertex="1">
          <mxGeometry x="450" y="100" width="70" height="40" as="geometry" />
        </mxCell>
        <mxCell id="sxlbJ4H0Vbx3y42RLdyf-38" value="姓名" style="ellipse;whiteSpace=wrap;html=1;" parent="1" vertex="1">
          <mxGeometry x="375" y="110" width="70" height="40" as="geometry" />
        </mxCell>
        <mxCell id="sxlbJ4H0Vbx3y42RLdyf-39" value="" style="endArrow=none;html=1;entryX=0.314;entryY=0.967;entryDx=0;entryDy=0;exitX=0.661;exitY=0;exitDx=0;exitDy=0;exitPerimeter=0;entryPerimeter=0;" parent="1" source="sxlbJ4H0Vbx3y42RLdyf-1" target="sxlbJ4H0Vbx3y42RLdyf-40" edge="1">
          <mxGeometry width="50" height="50" relative="1" as="geometry">
            <mxPoint x="495" y="220" as="sourcePoint" />
            <mxPoint x="495" y="150" as="targetPoint" />
          </mxGeometry>
        </mxCell>
        <mxCell id="sxlbJ4H0Vbx3y42RLdyf-40" value="電話號碼" style="ellipse;whiteSpace=wrap;html=1;" parent="1" vertex="1">
          <mxGeometry x="530" y="110" width="70" height="40" as="geometry" />
        </mxCell>
        <mxCell id="sxlbJ4H0Vbx3y42RLdyf-41" value="姓" style="ellipse;whiteSpace=wrap;html=1;" parent="1" vertex="1">
          <mxGeometry x="300" y="70" width="70" height="40" as="geometry" />
        </mxCell>
        <mxCell id="sxlbJ4H0Vbx3y42RLdyf-42" value="" style="endArrow=none;html=1;entryX=0.905;entryY=0.808;entryDx=0;entryDy=0;exitX=0.252;exitY=0.075;exitDx=0;exitDy=0;exitPerimeter=0;entryPerimeter=0;" parent="1" source="sxlbJ4H0Vbx3y42RLdyf-38" target="sxlbJ4H0Vbx3y42RLdyf-41" edge="1">
          <mxGeometry width="50" height="50" relative="1" as="geometry">
            <mxPoint x="412.03999999999996" y="150" as="sourcePoint" />
            <mxPoint x="347" y="90" as="targetPoint" />
          </mxGeometry>
        </mxCell>
        <mxCell id="sxlbJ4H0Vbx3y42RLdyf-43" value="名" style="ellipse;whiteSpace=wrap;html=1;" parent="1" vertex="1">
          <mxGeometry x="365" y="40" width="70" height="40" as="geometry" />
        </mxCell>
        <mxCell id="sxlbJ4H0Vbx3y42RLdyf-44" value="" style="endArrow=none;html=1;entryX=0.5;entryY=1;entryDx=0;entryDy=0;exitX=0.5;exitY=0;exitDx=0;exitDy=0;" parent="1" source="sxlbJ4H0Vbx3y42RLdyf-38" target="sxlbJ4H0Vbx3y42RLdyf-43" edge="1">
          <mxGeometry width="50" height="50" relative="1" as="geometry">
            <mxPoint x="462.64" y="100" as="sourcePoint" />
            <mxPoint x="417" y="77" as="targetPoint" />
          </mxGeometry>
        </mxCell>
        <mxCell id="sxlbJ4H0Vbx3y42RLdyf-45" value="廠商" style="rounded=0;whiteSpace=wrap;html=1;" parent="1" vertex="1">
          <mxGeometry x="897.25" y="481.46000000000004" width="120" height="60" as="geometry" />
        </mxCell>
        <mxCell id="sxlbJ4H0Vbx3y42RLdyf-46" value="增/刪/查/改" style="rhombus;whiteSpace=wrap;html=1;" parent="1" vertex="1">
          <mxGeometry x="435" y="350" width="100" height="60" as="geometry" />
        </mxCell>
        <mxCell id="sxlbJ4H0Vbx3y42RLdyf-47" value="" style="group" parent="1" vertex="1" connectable="0">
          <mxGeometry x="575" y="775" width="80" height="50" as="geometry" />
        </mxCell>
        <mxCell id="sxlbJ4H0Vbx3y42RLdyf-48" value="" style="ellipse;whiteSpace=wrap;html=1;gradientColor=#ffffff;fillColor=none;" parent="sxlbJ4H0Vbx3y42RLdyf-47" vertex="1">
          <mxGeometry width="80" height="50" as="geometry" />
        </mxCell>
        <mxCell id="sxlbJ4H0Vbx3y42RLdyf-49" value="檢測日期" style="ellipse;whiteSpace=wrap;html=1;" parent="sxlbJ4H0Vbx3y42RLdyf-47" vertex="1">
          <mxGeometry x="5" y="5" width="70" height="40" as="geometry" />
        </mxCell>
        <mxCell id="sxlbJ4H0Vbx3y42RLdyf-50" value="" style="rounded=0;whiteSpace=wrap;html=1;fillColor=none;" parent="1" vertex="1">
          <mxGeometry x="890" y="473.96000000000004" width="134.5" height="75" as="geometry" />
        </mxCell>
        <mxCell id="sxlbJ4H0Vbx3y42RLdyf-51" value="" style="endArrow=none;html=1;exitX=0.335;exitY=0.021;exitDx=0;exitDy=0;entryX=0.871;entryY=0.986;entryDx=0;entryDy=0;entryPerimeter=0;exitPerimeter=0;" parent="1" source="sxlbJ4H0Vbx3y42RLdyf-57" edge="1">
          <mxGeometry width="50" height="50" relative="1" as="geometry">
            <mxPoint x="1153.25" y="545.42" as="sourcePoint" />
            <mxPoint x="1007.1495" y="548.96" as="targetPoint" />
          </mxGeometry>
        </mxCell>
        <mxCell id="sxlbJ4H0Vbx3y42RLdyf-52" value="合作次數" style="ellipse;whiteSpace=wrap;html=1;dashed=1;" parent="1" vertex="1">
          <mxGeometry x="1080" y="485.41999999999996" width="70" height="40" as="geometry" />
        </mxCell>
        <mxCell id="sxlbJ4H0Vbx3y42RLdyf-53" value="" style="endArrow=none;html=1;exitX=0;exitY=0.5;exitDx=0;exitDy=0;entryX=1;entryY=0.5;entryDx=0;entryDy=0;" parent="1" source="sxlbJ4H0Vbx3y42RLdyf-52" target="sxlbJ4H0Vbx3y42RLdyf-50" edge="1">
          <mxGeometry width="50" height="50" relative="1" as="geometry">
            <mxPoint x="1172.25" y="443.7799999999999" as="sourcePoint" />
            <mxPoint x="1109.26" y="481.46000000000004" as="targetPoint" />
          </mxGeometry>
        </mxCell>
        <mxCell id="sxlbJ4H0Vbx3y42RLdyf-54" value="" style="shape=link;html=1;exitX=0.5;exitY=1;exitDx=0;exitDy=0;" parent="1" source="sxlbJ4H0Vbx3y42RLdyf-46" edge="1">
          <mxGeometry width="50" height="50" relative="1" as="geometry">
            <mxPoint x="485" y="420" as="sourcePoint" />
            <mxPoint x="485" y="480" as="targetPoint" />
          </mxGeometry>
        </mxCell>
        <mxCell id="sxlbJ4H0Vbx3y42RLdyf-55" value="" style="endArrow=none;html=1;entryX=0.5;entryY=1;entryDx=0;entryDy=0;exitX=0.5;exitY=0;exitDx=0;exitDy=0;" parent="1" source="sxlbJ4H0Vbx3y42RLdyf-46" target="sxlbJ4H0Vbx3y42RLdyf-1" edge="1">
          <mxGeometry width="50" height="50" relative="1" as="geometry">
            <mxPoint x="495" y="220" as="sourcePoint" />
            <mxPoint x="495" y="150" as="targetPoint" />
          </mxGeometry>
        </mxCell>
        <mxCell id="sxlbJ4H0Vbx3y42RLdyf-56" value="" style="group" parent="1" vertex="1" connectable="0">
          <mxGeometry x="1040" y="591.88" width="70" height="40" as="geometry" />
        </mxCell>
        <mxCell id="sxlbJ4H0Vbx3y42RLdyf-57" value="廠商名稱" style="ellipse;whiteSpace=wrap;html=1;" parent="sxlbJ4H0Vbx3y42RLdyf-56" vertex="1">
          <mxGeometry width="70" height="40" as="geometry" />
        </mxCell>
        <mxCell id="sxlbJ4H0Vbx3y42RLdyf-58" value="" style="endArrow=none;dashed=1;html=1;" parent="sxlbJ4H0Vbx3y42RLdyf-56" edge="1">
          <mxGeometry width="50" height="50" relative="1" as="geometry">
            <mxPoint x="15" y="33.12000000000012" as="sourcePoint" />
            <mxPoint x="55" y="33.12000000000012" as="targetPoint" />
          </mxGeometry>
        </mxCell>
        <mxCell id="sxlbJ4H0Vbx3y42RLdyf-59" value="" style="endArrow=none;html=1;entryX=0;entryY=0.5;entryDx=0;entryDy=0;exitX=1;exitY=0.5;exitDx=0;exitDy=0;" parent="1" source="sxlbJ4H0Vbx3y42RLdyf-28" target="sxlbJ4H0Vbx3y42RLdyf-29" edge="1">
          <mxGeometry width="50" height="50" relative="1" as="geometry">
            <mxPoint x="495" y="360.0000000000001" as="sourcePoint" />
            <mxPoint x="495" y="280.0000000000001" as="targetPoint" />
          </mxGeometry>
        </mxCell>
        <mxCell id="sxlbJ4H0Vbx3y42RLdyf-60" value="" style="group" parent="1" vertex="1" connectable="0">
          <mxGeometry x="681.25" y="473.96000000000004" width="117.5" height="75" as="geometry" />
        </mxCell>
        <mxCell id="sxlbJ4H0Vbx3y42RLdyf-61" value="" style="rhombus;whiteSpace=wrap;html=1;fillColor=none;" parent="sxlbJ4H0Vbx3y42RLdyf-60" vertex="1">
          <mxGeometry width="117.5" height="75" as="geometry" />
        </mxCell>
        <mxCell id="sxlbJ4H0Vbx3y42RLdyf-62" value="合作" style="rhombus;whiteSpace=wrap;html=1;" parent="sxlbJ4H0Vbx3y42RLdyf-60" vertex="1">
          <mxGeometry x="8.75" y="7.5" width="100" height="60" as="geometry" />
        </mxCell>
        <mxCell id="sxlbJ4H0Vbx3y42RLdyf-63" value="" style="shape=link;html=1;exitX=-0.055;exitY=0.508;exitDx=0;exitDy=0;exitPerimeter=0;" parent="1" source="sxlbJ4H0Vbx3y42RLdyf-62" target="sxlbJ4H0Vbx3y42RLdyf-34" edge="1">
          <mxGeometry width="50" height="50" relative="1" as="geometry">
            <mxPoint x="680" y="510" as="sourcePoint" />
            <mxPoint x="560" y="500" as="targetPoint" />
          </mxGeometry>
        </mxCell>
        <mxCell id="sxlbJ4H0Vbx3y42RLdyf-64" value="" style="shape=link;html=1;" parent="1" source="sxlbJ4H0Vbx3y42RLdyf-50" target="sxlbJ4H0Vbx3y42RLdyf-61" edge="1">
          <mxGeometry width="50" height="50" relative="1" as="geometry">
            <mxPoint x="958" y="511" as="sourcePoint" />
            <mxPoint x="798.75" y="510.7834586466166" as="targetPoint" />
          </mxGeometry>
        </mxCell>
        <mxCell id="sxlbJ4H0Vbx3y42RLdyf-65" value="M" style="text;html=1;align=center;verticalAlign=middle;resizable=0;points=[];labelBackgroundColor=#ffffff;" parent="1" vertex="1" connectable="0">
          <mxGeometry x="519.9971389318247" y="450.0042693793481" as="geometry">
            <mxPoint x="-13.55" y="1.12" as="offset" />
          </mxGeometry>
        </mxCell>
        <mxCell id="sxlbJ4H0Vbx3y42RLdyf-66" value="N&lt;br&gt;" style="text;html=1;align=center;verticalAlign=middle;resizable=0;points=[];labelBackgroundColor=#ffffff;" parent="1" vertex="1" connectable="0">
          <mxGeometry x="529.9971389318247" y="460.0042693793481" as="geometry">
            <mxPoint x="-24.55" y="-142.88" as="offset" />
          </mxGeometry>
        </mxCell>
        <mxCell id="sxlbJ4H0Vbx3y42RLdyf-67" value="N&lt;br&gt;" style="text;html=1;align=center;verticalAlign=middle;resizable=0;points=[];labelBackgroundColor=#ffffff;" parent="1" vertex="1" connectable="0">
          <mxGeometry x="859.9971389318247" y="485.42426937934806" as="geometry">
            <mxPoint x="-13.55" y="1.12" as="offset" />
          </mxGeometry>
        </mxCell>
        <mxCell id="sxlbJ4H0Vbx3y42RLdyf-68" value="1" style="text;html=1;align=center;verticalAlign=middle;resizable=0;points=[];labelBackgroundColor=#ffffff;" parent="1" vertex="1" connectable="0">
          <mxGeometry x="309.9971389318247" y="460.0042693793481" as="geometry">
            <mxPoint x="294.45" y="29.12" as="offset" />
          </mxGeometry>
        </mxCell>
      </root>
    </mxGraphModel>
  </diagram>
  <diagram id="lHWCTUHPOQ81lFH2beqr" name="Page-2">
    <mxGraphModel dx="1391" dy="841" grid="1" gridSize="10" guides="1" tooltips="1" connect="1" arrows="1" fold="1" page="1" pageScale="1" pageWidth="827" pageHeight="1169" math="0" shadow="0">
      <root>
        <mxCell id="YgR553y6cB55U8I9OvS--0" />
        <mxCell id="YgR553y6cB55U8I9OvS--1" parent="YgR553y6cB55U8I9OvS--0" />
        <mxCell id="YgR553y6cB55U8I9OvS--2" value="員工帳戶" style="rounded=0;whiteSpace=wrap;html=1;" vertex="1" parent="YgR553y6cB55U8I9OvS--1">
          <mxGeometry x="425" y="210" width="120" height="60" as="geometry" />
        </mxCell>
        <mxCell id="YgR553y6cB55U8I9OvS--3" value="" style="endArrow=none;html=1;exitX=0.5;exitY=0;exitDx=0;exitDy=0;entryX=0.542;entryY=1;entryDx=0;entryDy=0;entryPerimeter=0;" edge="1" parent="YgR553y6cB55U8I9OvS--1" source="YgR553y6cB55U8I9OvS--7">
          <mxGeometry width="50" height="50" relative="1" as="geometry">
            <mxPoint x="445" y="690" as="sourcePoint" />
            <mxPoint x="475.03999999999996" y="540" as="targetPoint" />
          </mxGeometry>
        </mxCell>
        <mxCell id="YgR553y6cB55U8I9OvS--4" value="" style="endArrow=none;html=1;entryX=0.75;entryY=1;entryDx=0;entryDy=0;exitX=0.5;exitY=0;exitDx=0;exitDy=0;" edge="1" parent="YgR553y6cB55U8I9OvS--1" source="YgR553y6cB55U8I9OvS--11">
          <mxGeometry width="50" height="50" relative="1" as="geometry">
            <mxPoint x="580" y="700" as="sourcePoint" />
            <mxPoint x="500" y="540" as="targetPoint" />
          </mxGeometry>
        </mxCell>
        <mxCell id="YgR553y6cB55U8I9OvS--5" value="" style="endArrow=none;html=1;exitX=0;exitY=0;exitDx=0;exitDy=0;entryX=0.918;entryY=1.003;entryDx=0;entryDy=0;entryPerimeter=0;" edge="1" parent="YgR553y6cB55U8I9OvS--1" source="YgR553y6cB55U8I9OvS--34">
          <mxGeometry width="50" height="50" relative="1" as="geometry">
            <mxPoint x="627.4300000000001" y="652.1600000000001" as="sourcePoint" />
            <mxPoint x="520.1600000000001" y="540.1800000000001" as="targetPoint" />
          </mxGeometry>
        </mxCell>
        <mxCell id="YgR553y6cB55U8I9OvS--6" value="" style="endArrow=none;html=1;entryX=0.25;entryY=1;entryDx=0;entryDy=0;exitX=1;exitY=0;exitDx=0;exitDy=0;" edge="1" parent="YgR553y6cB55U8I9OvS--1" source="YgR553y6cB55U8I9OvS--8">
          <mxGeometry width="50" height="50" relative="1" as="geometry">
            <mxPoint x="334.6777227507797" y="645.8174007179426" as="sourcePoint" />
            <mxPoint x="440" y="540" as="targetPoint" />
          </mxGeometry>
        </mxCell>
        <mxCell id="YgR553y6cB55U8I9OvS--7" value="金額" style="ellipse;whiteSpace=wrap;html=1;" vertex="1" parent="YgR553y6cB55U8I9OvS--1">
          <mxGeometry x="326" y="717.84" width="70" height="40" as="geometry" />
        </mxCell>
        <mxCell id="YgR553y6cB55U8I9OvS--8" value="&lt;u&gt;項目名稱&lt;/u&gt;" style="ellipse;whiteSpace=wrap;html=1;" vertex="1" parent="YgR553y6cB55U8I9OvS--1">
          <mxGeometry x="277" y="621.4599999999999" width="70" height="40" as="geometry" />
        </mxCell>
        <mxCell id="YgR553y6cB55U8I9OvS--9" value="" style="endArrow=none;html=1;entryX=0.224;entryY=0.911;entryDx=0;entryDy=0;exitX=0.5;exitY=0;exitDx=0;exitDy=0;entryPerimeter=0;" edge="1" parent="YgR553y6cB55U8I9OvS--1" source="YgR553y6cB55U8I9OvS--10" target="YgR553y6cB55U8I9OvS--11">
          <mxGeometry width="50" height="50" relative="1" as="geometry">
            <mxPoint x="530" y="750" as="sourcePoint" />
            <mxPoint x="585.9200000000001" y="708.6400000000001" as="targetPoint" />
          </mxGeometry>
        </mxCell>
        <mxCell id="YgR553y6cB55U8I9OvS--10" value="簽約日期" style="ellipse;whiteSpace=wrap;html=1;" vertex="1" parent="YgR553y6cB55U8I9OvS--1">
          <mxGeometry x="435" y="760" width="70" height="40" as="geometry" />
        </mxCell>
        <mxCell id="YgR553y6cB55U8I9OvS--11" value="日期" style="ellipse;whiteSpace=wrap;html=1;" vertex="1" parent="YgR553y6cB55U8I9OvS--1">
          <mxGeometry x="505" y="670" width="70" height="40" as="geometry" />
        </mxCell>
        <mxCell id="YgR553y6cB55U8I9OvS--12" value="" style="endArrow=none;html=1;exitX=0.5;exitY=0;exitDx=0;exitDy=0;entryX=0.5;entryY=1;entryDx=0;entryDy=0;" edge="1" parent="YgR553y6cB55U8I9OvS--1" source="YgR553y6cB55U8I9OvS--13" target="YgR553y6cB55U8I9OvS--11">
          <mxGeometry width="50" height="50" relative="1" as="geometry">
            <mxPoint x="610" y="750" as="sourcePoint" />
            <mxPoint x="575" y="710" as="targetPoint" />
          </mxGeometry>
        </mxCell>
        <mxCell id="YgR553y6cB55U8I9OvS--13" value="工程起始&lt;br&gt;日期" style="ellipse;whiteSpace=wrap;html=1;" vertex="1" parent="YgR553y6cB55U8I9OvS--1">
          <mxGeometry x="505" y="790" width="70" height="40" as="geometry" />
        </mxCell>
        <mxCell id="YgR553y6cB55U8I9OvS--14" value="" style="endArrow=none;html=1;exitX=0.296;exitY=0.04;exitDx=0;exitDy=0;exitPerimeter=0;" edge="1" parent="YgR553y6cB55U8I9OvS--1" source="YgR553y6cB55U8I9OvS--49" target="YgR553y6cB55U8I9OvS--11">
          <mxGeometry width="50" height="50" relative="1" as="geometry">
            <mxPoint x="680" y="700" as="sourcePoint" />
            <mxPoint x="725" y="660" as="targetPoint" />
          </mxGeometry>
        </mxCell>
        <mxCell id="YgR553y6cB55U8I9OvS--15" value="" style="endArrow=none;html=1;exitX=0.5;exitY=0;exitDx=0;exitDy=0;" edge="1" parent="YgR553y6cB55U8I9OvS--1">
          <mxGeometry width="50" height="50" relative="1" as="geometry">
            <mxPoint x="602" y="750" as="sourcePoint" />
            <mxPoint x="602.44" y="790" as="targetPoint" />
          </mxGeometry>
        </mxCell>
        <mxCell id="YgR553y6cB55U8I9OvS--16" value="" style="endArrow=none;html=1;exitX=0.5;exitY=0;exitDx=0;exitDy=0;entryX=0.5;entryY=1;entryDx=0;entryDy=0;" edge="1" parent="YgR553y6cB55U8I9OvS--1">
          <mxGeometry width="50" height="50" relative="1" as="geometry">
            <mxPoint x="687" y="850.43" as="sourcePoint" />
            <mxPoint x="672" y="750" as="targetPoint" />
          </mxGeometry>
        </mxCell>
        <mxCell id="YgR553y6cB55U8I9OvS--17" value="&lt;u&gt;員工編號&lt;/u&gt;" style="ellipse;whiteSpace=wrap;html=1;" vertex="1" parent="YgR553y6cB55U8I9OvS--1">
          <mxGeometry x="329" y="150" width="70" height="40" as="geometry" />
        </mxCell>
        <mxCell id="YgR553y6cB55U8I9OvS--18" value="" style="endArrow=none;html=1;exitX=0.25;exitY=0;exitDx=0;exitDy=0;entryX=1;entryY=1;entryDx=0;entryDy=0;" edge="1" parent="YgR553y6cB55U8I9OvS--1" source="YgR553y6cB55U8I9OvS--2" target="YgR553y6cB55U8I9OvS--17">
          <mxGeometry width="50" height="50" relative="1" as="geometry">
            <mxPoint x="589.5799999999999" y="190" as="sourcePoint" />
            <mxPoint x="589.5799999999999" y="100" as="targetPoint" />
          </mxGeometry>
        </mxCell>
        <mxCell id="YgR553y6cB55U8I9OvS--19" value="" style="endArrow=none;html=1;entryX=0.707;entryY=0.945;entryDx=0;entryDy=0;exitX=0.417;exitY=0;exitDx=0;exitDy=0;exitPerimeter=0;entryPerimeter=0;" edge="1" parent="YgR553y6cB55U8I9OvS--1" source="YgR553y6cB55U8I9OvS--2" target="YgR553y6cB55U8I9OvS--39">
          <mxGeometry width="50" height="50" relative="1" as="geometry">
            <mxPoint x="480" y="210" as="sourcePoint" />
            <mxPoint x="410" y="150" as="targetPoint" />
          </mxGeometry>
        </mxCell>
        <mxCell id="YgR553y6cB55U8I9OvS--20" value="" style="endArrow=none;html=1;entryX=0.5;entryY=1;entryDx=0;entryDy=0;exitX=0.5;exitY=0;exitDx=0;exitDy=0;" edge="1" parent="YgR553y6cB55U8I9OvS--1" source="YgR553y6cB55U8I9OvS--2" target="YgR553y6cB55U8I9OvS--38">
          <mxGeometry width="50" height="50" relative="1" as="geometry">
            <mxPoint x="490" y="210" as="sourcePoint" />
            <mxPoint x="485" y="140" as="targetPoint" />
          </mxGeometry>
        </mxCell>
        <mxCell id="YgR553y6cB55U8I9OvS--21" value="" style="endArrow=none;html=1;entryX=1;entryY=1;entryDx=0;entryDy=0;exitX=0;exitY=0;exitDx=0;exitDy=0;" edge="1" parent="YgR553y6cB55U8I9OvS--1" source="YgR553y6cB55U8I9OvS--22" target="YgR553y6cB55U8I9OvS--11">
          <mxGeometry width="50" height="50" relative="1" as="geometry">
            <mxPoint x="685" y="740.86" as="sourcePoint" />
            <mxPoint x="705.251262658471" y="695.0021356237309" as="targetPoint" />
          </mxGeometry>
        </mxCell>
        <mxCell id="YgR553y6cB55U8I9OvS--22" value="完工日期" style="ellipse;whiteSpace=wrap;html=1;" vertex="1" parent="YgR553y6cB55U8I9OvS--1">
          <mxGeometry x="630" y="742.84" width="70" height="40" as="geometry" />
        </mxCell>
        <mxCell id="YgR553y6cB55U8I9OvS--23" value="" style="endArrow=none;html=1;exitX=0.5;exitY=0;exitDx=0;exitDy=0;entryX=0;entryY=1;entryDx=0;entryDy=0;" edge="1" parent="YgR553y6cB55U8I9OvS--1" source="YgR553y6cB55U8I9OvS--24" target="YgR553y6cB55U8I9OvS--7">
          <mxGeometry width="50" height="50" relative="1" as="geometry">
            <mxPoint x="346" y="871.11" as="sourcePoint" />
            <mxPoint x="350" y="767.84" as="targetPoint" />
          </mxGeometry>
        </mxCell>
        <mxCell id="YgR553y6cB55U8I9OvS--24" value="實際金額" style="ellipse;whiteSpace=wrap;html=1;" vertex="1" parent="YgR553y6cB55U8I9OvS--1">
          <mxGeometry x="280" y="767.84" width="70" height="40" as="geometry" />
        </mxCell>
        <mxCell id="YgR553y6cB55U8I9OvS--25" value="" style="endArrow=none;html=1;exitX=0.5;exitY=0;exitDx=0;exitDy=0;entryX=0.738;entryY=0.942;entryDx=0;entryDy=0;entryPerimeter=0;" edge="1" parent="YgR553y6cB55U8I9OvS--1" source="YgR553y6cB55U8I9OvS--26" target="YgR553y6cB55U8I9OvS--7">
          <mxGeometry width="50" height="50" relative="1" as="geometry">
            <mxPoint x="416" y="881.11" as="sourcePoint" />
            <mxPoint x="367.30999999999995" y="756.16" as="targetPoint" />
          </mxGeometry>
        </mxCell>
        <mxCell id="YgR553y6cB55U8I9OvS--26" value="金額範圍" style="ellipse;whiteSpace=wrap;html=1;dashed=1;" vertex="1" parent="YgR553y6cB55U8I9OvS--1">
          <mxGeometry x="355" y="770.6800000000001" width="70" height="37.16" as="geometry" />
        </mxCell>
        <mxCell id="YgR553y6cB55U8I9OvS--27" value="" style="endArrow=none;html=1;entryX=1;entryY=1;entryDx=0;entryDy=0;exitX=0.231;exitY=0.073;exitDx=0;exitDy=0;exitPerimeter=0;" edge="1" parent="YgR553y6cB55U8I9OvS--1" source="YgR553y6cB55U8I9OvS--28" target="YgR553y6cB55U8I9OvS--34">
          <mxGeometry width="50" height="50" relative="1" as="geometry">
            <mxPoint x="749.6777227507796" y="597.2774007179427" as="sourcePoint" />
            <mxPoint x="515" y="481.46000000000004" as="targetPoint" />
          </mxGeometry>
        </mxCell>
        <mxCell id="YgR553y6cB55U8I9OvS--28" value="詳細" style="ellipse;whiteSpace=wrap;html=1;" vertex="1" parent="YgR553y6cB55U8I9OvS--1">
          <mxGeometry x="690" y="626.46" width="70" height="35" as="geometry" />
        </mxCell>
        <mxCell id="YgR553y6cB55U8I9OvS--29" value="使用者" style="rounded=0;whiteSpace=wrap;html=1;" vertex="1" parent="YgR553y6cB55U8I9OvS--1">
          <mxGeometry x="40" y="210" width="120" height="60" as="geometry" />
        </mxCell>
        <mxCell id="YgR553y6cB55U8I9OvS--30" value="登入" style="rhombus;whiteSpace=wrap;html=1;" vertex="1" parent="YgR553y6cB55U8I9OvS--1">
          <mxGeometry x="247" y="210" width="100" height="60" as="geometry" />
        </mxCell>
        <mxCell id="YgR553y6cB55U8I9OvS--31" value="" style="shape=link;html=1;exitX=0.973;exitY=0.503;exitDx=0;exitDy=0;entryX=0;entryY=0.5;entryDx=0;entryDy=0;exitPerimeter=0;" edge="1" parent="YgR553y6cB55U8I9OvS--1" source="YgR553y6cB55U8I9OvS--30" target="YgR553y6cB55U8I9OvS--2">
          <mxGeometry width="50" height="50" relative="1" as="geometry">
            <mxPoint x="329.03" y="240" as="sourcePoint" />
            <mxPoint x="380.9699999999998" y="304.98" as="targetPoint" />
          </mxGeometry>
        </mxCell>
        <mxCell id="YgR553y6cB55U8I9OvS--32" value="1" style="text;html=1;align=center;verticalAlign=middle;resizable=0;points=[];labelBackgroundColor=#ffffff;" vertex="1" connectable="0" parent="YgR553y6cB55U8I9OvS--1">
          <mxGeometry x="252.99713893182468" y="220.0042693793481" as="geometry">
            <mxPoint x="-13.55" y="1.12" as="offset" />
          </mxGeometry>
        </mxCell>
        <mxCell id="YgR553y6cB55U8I9OvS--33" value="1" style="text;html=1;align=center;verticalAlign=middle;resizable=0;points=[];labelBackgroundColor=#ffffff;" vertex="1" connectable="0" parent="YgR553y6cB55U8I9OvS--1">
          <mxGeometry x="362.9971389318247" y="220.0042693793481" as="geometry">
            <mxPoint x="-13.55" y="1.12" as="offset" />
          </mxGeometry>
        </mxCell>
        <mxCell id="YgR553y6cB55U8I9OvS--34" value="項目內容" style="ellipse;whiteSpace=wrap;html=1;" vertex="1" parent="YgR553y6cB55U8I9OvS--1">
          <mxGeometry x="580" y="576.46" width="70" height="35" as="geometry" />
        </mxCell>
        <mxCell id="YgR553y6cB55U8I9OvS--35" value="合作項目" style="rounded=0;whiteSpace=wrap;html=1;" vertex="1" parent="YgR553y6cB55U8I9OvS--1">
          <mxGeometry x="425" y="480" width="120" height="60" as="geometry" />
        </mxCell>
        <mxCell id="YgR553y6cB55U8I9OvS--36" value="" style="endArrow=none;html=1;entryX=0.64;entryY=0.979;entryDx=0;entryDy=0;exitX=0.231;exitY=0.073;exitDx=0;exitDy=0;exitPerimeter=0;entryPerimeter=0;" edge="1" parent="YgR553y6cB55U8I9OvS--1" source="YgR553y6cB55U8I9OvS--37" target="YgR553y6cB55U8I9OvS--34">
          <mxGeometry width="50" height="50" relative="1" as="geometry">
            <mxPoint x="719.7577227507797" y="602.4874007179427" as="sourcePoint" />
            <mxPoint x="609.9988256958569" y="611.4587359596007" as="targetPoint" />
          </mxGeometry>
        </mxCell>
        <mxCell id="YgR553y6cB55U8I9OvS--37" value="簡易" style="ellipse;whiteSpace=wrap;html=1;" vertex="1" parent="YgR553y6cB55U8I9OvS--1">
          <mxGeometry x="630" y="656.46" width="70" height="35" as="geometry" />
        </mxCell>
        <mxCell id="YgR553y6cB55U8I9OvS--38" value="身分權限" style="ellipse;whiteSpace=wrap;html=1;" vertex="1" parent="YgR553y6cB55U8I9OvS--1">
          <mxGeometry x="450" y="100" width="70" height="40" as="geometry" />
        </mxCell>
        <mxCell id="YgR553y6cB55U8I9OvS--39" value="姓名" style="ellipse;whiteSpace=wrap;html=1;" vertex="1" parent="YgR553y6cB55U8I9OvS--1">
          <mxGeometry x="375" y="110" width="70" height="40" as="geometry" />
        </mxCell>
        <mxCell id="YgR553y6cB55U8I9OvS--40" value="" style="endArrow=none;html=1;entryX=0.314;entryY=0.967;entryDx=0;entryDy=0;exitX=0.661;exitY=0;exitDx=0;exitDy=0;exitPerimeter=0;entryPerimeter=0;" edge="1" parent="YgR553y6cB55U8I9OvS--1" source="YgR553y6cB55U8I9OvS--2" target="YgR553y6cB55U8I9OvS--41">
          <mxGeometry width="50" height="50" relative="1" as="geometry">
            <mxPoint x="495" y="220" as="sourcePoint" />
            <mxPoint x="495" y="150" as="targetPoint" />
          </mxGeometry>
        </mxCell>
        <mxCell id="YgR553y6cB55U8I9OvS--41" value="電話號碼" style="ellipse;whiteSpace=wrap;html=1;" vertex="1" parent="YgR553y6cB55U8I9OvS--1">
          <mxGeometry x="530" y="110" width="70" height="40" as="geometry" />
        </mxCell>
        <mxCell id="YgR553y6cB55U8I9OvS--42" value="姓" style="ellipse;whiteSpace=wrap;html=1;" vertex="1" parent="YgR553y6cB55U8I9OvS--1">
          <mxGeometry x="300" y="70" width="70" height="40" as="geometry" />
        </mxCell>
        <mxCell id="YgR553y6cB55U8I9OvS--43" value="" style="endArrow=none;html=1;entryX=0.905;entryY=0.808;entryDx=0;entryDy=0;exitX=0.252;exitY=0.075;exitDx=0;exitDy=0;exitPerimeter=0;entryPerimeter=0;" edge="1" parent="YgR553y6cB55U8I9OvS--1" source="YgR553y6cB55U8I9OvS--39" target="YgR553y6cB55U8I9OvS--42">
          <mxGeometry width="50" height="50" relative="1" as="geometry">
            <mxPoint x="412.03999999999996" y="150" as="sourcePoint" />
            <mxPoint x="347" y="90" as="targetPoint" />
          </mxGeometry>
        </mxCell>
        <mxCell id="YgR553y6cB55U8I9OvS--44" value="名" style="ellipse;whiteSpace=wrap;html=1;" vertex="1" parent="YgR553y6cB55U8I9OvS--1">
          <mxGeometry x="365" y="40" width="70" height="40" as="geometry" />
        </mxCell>
        <mxCell id="YgR553y6cB55U8I9OvS--45" value="" style="endArrow=none;html=1;entryX=0.5;entryY=1;entryDx=0;entryDy=0;exitX=0.5;exitY=0;exitDx=0;exitDy=0;" edge="1" parent="YgR553y6cB55U8I9OvS--1" source="YgR553y6cB55U8I9OvS--39" target="YgR553y6cB55U8I9OvS--44">
          <mxGeometry width="50" height="50" relative="1" as="geometry">
            <mxPoint x="462.64" y="100" as="sourcePoint" />
            <mxPoint x="417" y="77" as="targetPoint" />
          </mxGeometry>
        </mxCell>
        <mxCell id="YgR553y6cB55U8I9OvS--46" value="廠商" style="rounded=0;whiteSpace=wrap;html=1;" vertex="1" parent="YgR553y6cB55U8I9OvS--1">
          <mxGeometry x="897.25" y="481.46000000000004" width="120" height="60" as="geometry" />
        </mxCell>
        <mxCell id="YgR553y6cB55U8I9OvS--47" value="增/刪/查/改" style="rhombus;whiteSpace=wrap;html=1;" vertex="1" parent="YgR553y6cB55U8I9OvS--1">
          <mxGeometry x="435" y="350" width="100" height="60" as="geometry" />
        </mxCell>
        <mxCell id="YgR553y6cB55U8I9OvS--48" value="" style="group" vertex="1" connectable="0" parent="YgR553y6cB55U8I9OvS--1">
          <mxGeometry x="575" y="775" width="80" height="50" as="geometry" />
        </mxCell>
        <mxCell id="YgR553y6cB55U8I9OvS--49" value="" style="ellipse;whiteSpace=wrap;html=1;gradientColor=#ffffff;fillColor=none;" vertex="1" parent="YgR553y6cB55U8I9OvS--48">
          <mxGeometry width="80" height="50" as="geometry" />
        </mxCell>
        <mxCell id="YgR553y6cB55U8I9OvS--50" value="檢測日期" style="ellipse;whiteSpace=wrap;html=1;" vertex="1" parent="YgR553y6cB55U8I9OvS--48">
          <mxGeometry x="5" y="5" width="70" height="40" as="geometry" />
        </mxCell>
        <mxCell id="YgR553y6cB55U8I9OvS--51" value="" style="rounded=0;whiteSpace=wrap;html=1;fillColor=none;" vertex="1" parent="YgR553y6cB55U8I9OvS--1">
          <mxGeometry x="890" y="473.96000000000004" width="134.5" height="75" as="geometry" />
        </mxCell>
        <mxCell id="YgR553y6cB55U8I9OvS--52" value="" style="endArrow=none;html=1;exitX=0.335;exitY=0.021;exitDx=0;exitDy=0;entryX=0.871;entryY=0.986;entryDx=0;entryDy=0;entryPerimeter=0;exitPerimeter=0;" edge="1" parent="YgR553y6cB55U8I9OvS--1" source="YgR553y6cB55U8I9OvS--58">
          <mxGeometry width="50" height="50" relative="1" as="geometry">
            <mxPoint x="1153.25" y="545.42" as="sourcePoint" />
            <mxPoint x="1007.1495" y="548.96" as="targetPoint" />
          </mxGeometry>
        </mxCell>
        <mxCell id="YgR553y6cB55U8I9OvS--53" value="合作次數" style="ellipse;whiteSpace=wrap;html=1;dashed=1;" vertex="1" parent="YgR553y6cB55U8I9OvS--1">
          <mxGeometry x="1080" y="485.41999999999996" width="70" height="40" as="geometry" />
        </mxCell>
        <mxCell id="YgR553y6cB55U8I9OvS--54" value="" style="endArrow=none;html=1;exitX=0;exitY=0.5;exitDx=0;exitDy=0;entryX=1;entryY=0.5;entryDx=0;entryDy=0;" edge="1" parent="YgR553y6cB55U8I9OvS--1" source="YgR553y6cB55U8I9OvS--53" target="YgR553y6cB55U8I9OvS--51">
          <mxGeometry width="50" height="50" relative="1" as="geometry">
            <mxPoint x="1172.25" y="443.7799999999999" as="sourcePoint" />
            <mxPoint x="1109.26" y="481.46000000000004" as="targetPoint" />
          </mxGeometry>
        </mxCell>
        <mxCell id="YgR553y6cB55U8I9OvS--55" value="" style="shape=link;html=1;exitX=0.5;exitY=1;exitDx=0;exitDy=0;" edge="1" parent="YgR553y6cB55U8I9OvS--1" source="YgR553y6cB55U8I9OvS--47">
          <mxGeometry width="50" height="50" relative="1" as="geometry">
            <mxPoint x="485" y="420" as="sourcePoint" />
            <mxPoint x="485" y="480" as="targetPoint" />
          </mxGeometry>
        </mxCell>
        <mxCell id="YgR553y6cB55U8I9OvS--56" value="" style="endArrow=none;html=1;entryX=0.5;entryY=1;entryDx=0;entryDy=0;exitX=0.5;exitY=0;exitDx=0;exitDy=0;" edge="1" parent="YgR553y6cB55U8I9OvS--1" source="YgR553y6cB55U8I9OvS--47" target="YgR553y6cB55U8I9OvS--2">
          <mxGeometry width="50" height="50" relative="1" as="geometry">
            <mxPoint x="495" y="220" as="sourcePoint" />
            <mxPoint x="495" y="150" as="targetPoint" />
          </mxGeometry>
        </mxCell>
        <mxCell id="YgR553y6cB55U8I9OvS--57" value="" style="group" vertex="1" connectable="0" parent="YgR553y6cB55U8I9OvS--1">
          <mxGeometry x="1040" y="591.88" width="70" height="40" as="geometry" />
        </mxCell>
        <mxCell id="YgR553y6cB55U8I9OvS--58" value="廠商名稱" style="ellipse;whiteSpace=wrap;html=1;" vertex="1" parent="YgR553y6cB55U8I9OvS--57">
          <mxGeometry width="70" height="40" as="geometry" />
        </mxCell>
        <mxCell id="YgR553y6cB55U8I9OvS--59" value="" style="endArrow=none;dashed=1;html=1;" edge="1" parent="YgR553y6cB55U8I9OvS--57">
          <mxGeometry width="50" height="50" relative="1" as="geometry">
            <mxPoint x="15" y="33.12000000000012" as="sourcePoint" />
            <mxPoint x="55" y="33.12000000000012" as="targetPoint" />
          </mxGeometry>
        </mxCell>
        <mxCell id="YgR553y6cB55U8I9OvS--60" value="" style="endArrow=none;html=1;entryX=0;entryY=0.5;entryDx=0;entryDy=0;exitX=1;exitY=0.5;exitDx=0;exitDy=0;" edge="1" parent="YgR553y6cB55U8I9OvS--1" source="YgR553y6cB55U8I9OvS--29" target="YgR553y6cB55U8I9OvS--30">
          <mxGeometry width="50" height="50" relative="1" as="geometry">
            <mxPoint x="495" y="360.0000000000001" as="sourcePoint" />
            <mxPoint x="495" y="280.0000000000001" as="targetPoint" />
          </mxGeometry>
        </mxCell>
        <mxCell id="YgR553y6cB55U8I9OvS--61" value="" style="group" vertex="1" connectable="0" parent="YgR553y6cB55U8I9OvS--1">
          <mxGeometry x="681.25" y="473.96000000000004" width="117.5" height="75" as="geometry" />
        </mxCell>
        <mxCell id="YgR553y6cB55U8I9OvS--62" value="" style="rhombus;whiteSpace=wrap;html=1;fillColor=none;" vertex="1" parent="YgR553y6cB55U8I9OvS--61">
          <mxGeometry width="117.5" height="75" as="geometry" />
        </mxCell>
        <mxCell id="YgR553y6cB55U8I9OvS--63" value="合作" style="rhombus;whiteSpace=wrap;html=1;" vertex="1" parent="YgR553y6cB55U8I9OvS--61">
          <mxGeometry x="8.75" y="7.5" width="100" height="60" as="geometry" />
        </mxCell>
        <mxCell id="YgR553y6cB55U8I9OvS--64" value="" style="shape=link;html=1;exitX=-0.055;exitY=0.508;exitDx=0;exitDy=0;exitPerimeter=0;" edge="1" parent="YgR553y6cB55U8I9OvS--1" source="YgR553y6cB55U8I9OvS--63" target="YgR553y6cB55U8I9OvS--35">
          <mxGeometry width="50" height="50" relative="1" as="geometry">
            <mxPoint x="680" y="510" as="sourcePoint" />
            <mxPoint x="560" y="500" as="targetPoint" />
          </mxGeometry>
        </mxCell>
        <mxCell id="YgR553y6cB55U8I9OvS--65" value="" style="shape=link;html=1;" edge="1" parent="YgR553y6cB55U8I9OvS--1" source="YgR553y6cB55U8I9OvS--51" target="YgR553y6cB55U8I9OvS--62">
          <mxGeometry width="50" height="50" relative="1" as="geometry">
            <mxPoint x="958" y="511" as="sourcePoint" />
            <mxPoint x="798.75" y="510.7834586466166" as="targetPoint" />
          </mxGeometry>
        </mxCell>
        <mxCell id="YgR553y6cB55U8I9OvS--66" value="M" style="text;html=1;align=center;verticalAlign=middle;resizable=0;points=[];labelBackgroundColor=#ffffff;" vertex="1" connectable="0" parent="YgR553y6cB55U8I9OvS--1">
          <mxGeometry x="519.9971389318247" y="450.0042693793481" as="geometry">
            <mxPoint x="-13.55" y="1.12" as="offset" />
          </mxGeometry>
        </mxCell>
        <mxCell id="YgR553y6cB55U8I9OvS--67" value="N&lt;br&gt;" style="text;html=1;align=center;verticalAlign=middle;resizable=0;points=[];labelBackgroundColor=#ffffff;" vertex="1" connectable="0" parent="YgR553y6cB55U8I9OvS--1">
          <mxGeometry x="529.9971389318247" y="460.0042693793481" as="geometry">
            <mxPoint x="-24.55" y="-142.88" as="offset" />
          </mxGeometry>
        </mxCell>
        <mxCell id="YgR553y6cB55U8I9OvS--68" value="N&lt;br&gt;" style="text;html=1;align=center;verticalAlign=middle;resizable=0;points=[];labelBackgroundColor=#ffffff;" vertex="1" connectable="0" parent="YgR553y6cB55U8I9OvS--1">
          <mxGeometry x="859.9971389318247" y="485.42426937934806" as="geometry">
            <mxPoint x="-13.55" y="1.12" as="offset" />
          </mxGeometry>
        </mxCell>
        <mxCell id="YgR553y6cB55U8I9OvS--69" value="1" style="text;html=1;align=center;verticalAlign=middle;resizable=0;points=[];labelBackgroundColor=#ffffff;" vertex="1" connectable="0" parent="YgR553y6cB55U8I9OvS--1">
          <mxGeometry x="309.9971389318247" y="460.0042693793481" as="geometry">
            <mxPoint x="294.45" y="29.12" as="offset" />
          </mxGeometry>
        </mxCell>
        <mxCell id="YgR553y6cB55U8I9OvS--70" value="&lt;font style=&quot;font-size: 14px&quot;&gt;負責人&lt;/font&gt;" style="text;html=1;align=center;verticalAlign=middle;resizable=0;points=[];autosize=1;fillColor=#ffe6cc;strokeColor=#d79b00;" vertex="1" parent="YgR553y6cB55U8I9OvS--1">
          <mxGeometry x="803.75" y="100" width="60" height="20" as="geometry" />
        </mxCell>
        <mxCell id="YgR553y6cB55U8I9OvS--71" value="&lt;font style=&quot;font-size: 14px&quot;&gt;機密程度&lt;/font&gt;" style="text;html=1;align=center;verticalAlign=middle;resizable=0;points=[];autosize=1;fillColor=#ffe6cc;strokeColor=#d79b00;" vertex="1" parent="YgR553y6cB55U8I9OvS--1">
          <mxGeometry x="798.75" y="70" width="70" height="20" as="geometry" />
        </mxCell>
        <mxCell id="YgR553y6cB55U8I9OvS--72" value="公司代表" style="ellipse;whiteSpace=wrap;html=1;" vertex="1" parent="YgR553y6cB55U8I9OvS--1">
          <mxGeometry x="879.75" y="100" width="70" height="40" as="geometry" />
        </mxCell>
        <mxCell id="YgR553y6cB55U8I9OvS--73" value="廠商代表" style="ellipse;whiteSpace=wrap;html=1;" vertex="1" parent="YgR553y6cB55U8I9OvS--1">
          <mxGeometry x="879.75" y="150" width="70" height="40" as="geometry" />
        </mxCell>
      </root>
    </mxGraphModel>
  </diagram>
  <diagram id="YpSqfDoWLsRe6qBleOve" name="Page-3">
    <mxGraphModel dx="1422" dy="715" grid="1" gridSize="10" guides="1" tooltips="1" connect="1" arrows="1" fold="1" page="1" pageScale="1" pageWidth="827" pageHeight="1169" math="0" shadow="0">
      <root>
        <mxCell id="lQjQSpEwvedvhS4Pdivs-0" />
        <mxCell id="lQjQSpEwvedvhS4Pdivs-1" parent="lQjQSpEwvedvhS4Pdivs-0" />
        <mxCell id="lQjQSpEwvedvhS4Pdivs-2" value="員工帳戶" style="rounded=0;whiteSpace=wrap;html=1;" vertex="1" parent="lQjQSpEwvedvhS4Pdivs-1">
          <mxGeometry x="425" y="210" width="120" height="60" as="geometry" />
        </mxCell>
        <mxCell id="lQjQSpEwvedvhS4Pdivs-3" value="" style="endArrow=none;html=1;exitX=0.5;exitY=0;exitDx=0;exitDy=0;entryX=0;entryY=1;entryDx=0;entryDy=0;" edge="1" parent="lQjQSpEwvedvhS4Pdivs-1" source="lQjQSpEwvedvhS4Pdivs-7" target="lQjQSpEwvedvhS4Pdivs-32">
          <mxGeometry width="50" height="50" relative="1" as="geometry">
            <mxPoint x="448" y="940" as="sourcePoint" />
            <mxPoint x="478.03999999999996" y="790" as="targetPoint" />
          </mxGeometry>
        </mxCell>
        <mxCell id="lQjQSpEwvedvhS4Pdivs-5" value="" style="endArrow=none;html=1;exitX=0;exitY=0;exitDx=0;exitDy=0;entryX=1;entryY=0.75;entryDx=0;entryDy=0;" edge="1" parent="lQjQSpEwvedvhS4Pdivs-1" source="lQjQSpEwvedvhS4Pdivs-31" target="lQjQSpEwvedvhS4Pdivs-32">
          <mxGeometry width="50" height="50" relative="1" as="geometry">
            <mxPoint x="630.4300000000001" y="902.1600000000001" as="sourcePoint" />
            <mxPoint x="523.1600000000001" y="790.1800000000001" as="targetPoint" />
          </mxGeometry>
        </mxCell>
        <mxCell id="lQjQSpEwvedvhS4Pdivs-6" value="" style="endArrow=none;html=1;entryX=0;entryY=0.5;entryDx=0;entryDy=0;exitX=1;exitY=0;exitDx=0;exitDy=0;" edge="1" parent="lQjQSpEwvedvhS4Pdivs-1" source="lQjQSpEwvedvhS4Pdivs-8" target="lQjQSpEwvedvhS4Pdivs-32">
          <mxGeometry width="50" height="50" relative="1" as="geometry">
            <mxPoint x="337.6777227507797" y="895.8174007179427" as="sourcePoint" />
            <mxPoint x="443" y="790" as="targetPoint" />
          </mxGeometry>
        </mxCell>
        <mxCell id="lQjQSpEwvedvhS4Pdivs-7" value="金額" style="ellipse;whiteSpace=wrap;html=1;" vertex="1" parent="lQjQSpEwvedvhS4Pdivs-1">
          <mxGeometry x="300" y="880.0000000000001" width="70" height="40" as="geometry" />
        </mxCell>
        <mxCell id="lQjQSpEwvedvhS4Pdivs-8" value="&lt;u&gt;項目名稱&lt;/u&gt;" style="ellipse;whiteSpace=wrap;html=1;" vertex="1" parent="lQjQSpEwvedvhS4Pdivs-1">
          <mxGeometry x="262" y="810" width="70" height="40" as="geometry" />
        </mxCell>
        <mxCell id="lQjQSpEwvedvhS4Pdivs-9" value="" style="endArrow=none;html=1;entryX=0.25;entryY=1;entryDx=0;entryDy=0;exitX=0.5;exitY=0;exitDx=0;exitDy=0;" edge="1" parent="lQjQSpEwvedvhS4Pdivs-1" source="lQjQSpEwvedvhS4Pdivs-10" target="lQjQSpEwvedvhS4Pdivs-32">
          <mxGeometry width="50" height="50" relative="1" as="geometry">
            <mxPoint x="533" y="1000" as="sourcePoint" />
            <mxPoint x="523.6800000000001" y="956.44" as="targetPoint" />
          </mxGeometry>
        </mxCell>
        <mxCell id="lQjQSpEwvedvhS4Pdivs-10" value="簽約日期" style="ellipse;whiteSpace=wrap;html=1;" vertex="1" parent="lQjQSpEwvedvhS4Pdivs-1">
          <mxGeometry x="375" y="920" width="70" height="40" as="geometry" />
        </mxCell>
        <mxCell id="lQjQSpEwvedvhS4Pdivs-12" value="" style="endArrow=none;html=1;exitX=0.5;exitY=0;exitDx=0;exitDy=0;entryX=0.5;entryY=1;entryDx=0;entryDy=0;" edge="1" parent="lQjQSpEwvedvhS4Pdivs-1" source="lQjQSpEwvedvhS4Pdivs-13" target="lQjQSpEwvedvhS4Pdivs-32">
          <mxGeometry width="50" height="50" relative="1" as="geometry">
            <mxPoint x="613" y="1000" as="sourcePoint" />
            <mxPoint x="543" y="960" as="targetPoint" />
          </mxGeometry>
        </mxCell>
        <mxCell id="lQjQSpEwvedvhS4Pdivs-13" value="工程起始&lt;br&gt;日期" style="ellipse;whiteSpace=wrap;html=1;" vertex="1" parent="lQjQSpEwvedvhS4Pdivs-1">
          <mxGeometry x="460" y="925" width="70" height="40" as="geometry" />
        </mxCell>
        <mxCell id="lQjQSpEwvedvhS4Pdivs-14" value="" style="endArrow=none;html=1;exitX=0.296;exitY=0.04;exitDx=0;exitDy=0;exitPerimeter=0;entryX=0.75;entryY=1;entryDx=0;entryDy=0;" edge="1" parent="lQjQSpEwvedvhS4Pdivs-1" source="lQjQSpEwvedvhS4Pdivs-46" target="lQjQSpEwvedvhS4Pdivs-32">
          <mxGeometry width="50" height="50" relative="1" as="geometry">
            <mxPoint x="683" y="950" as="sourcePoint" />
            <mxPoint x="555.4598364657197" y="958.6897546985797" as="targetPoint" />
          </mxGeometry>
        </mxCell>
        <mxCell id="lQjQSpEwvedvhS4Pdivs-15" value="&lt;u&gt;員工編號&lt;/u&gt;" style="ellipse;whiteSpace=wrap;html=1;" vertex="1" parent="lQjQSpEwvedvhS4Pdivs-1">
          <mxGeometry x="247" y="160" width="70" height="40" as="geometry" />
        </mxCell>
        <mxCell id="lQjQSpEwvedvhS4Pdivs-16" value="" style="endArrow=none;html=1;exitX=0.25;exitY=0;exitDx=0;exitDy=0;entryX=1;entryY=1;entryDx=0;entryDy=0;" edge="1" parent="lQjQSpEwvedvhS4Pdivs-1" source="lQjQSpEwvedvhS4Pdivs-2" target="lQjQSpEwvedvhS4Pdivs-15">
          <mxGeometry width="50" height="50" relative="1" as="geometry">
            <mxPoint x="589.5799999999999" y="190" as="sourcePoint" />
            <mxPoint x="589.5799999999999" y="100" as="targetPoint" />
          </mxGeometry>
        </mxCell>
        <mxCell id="lQjQSpEwvedvhS4Pdivs-17" value="" style="endArrow=none;html=1;entryX=0.707;entryY=0.945;entryDx=0;entryDy=0;exitX=0.417;exitY=0;exitDx=0;exitDy=0;exitPerimeter=0;entryPerimeter=0;" edge="1" parent="lQjQSpEwvedvhS4Pdivs-1" source="lQjQSpEwvedvhS4Pdivs-2" target="lQjQSpEwvedvhS4Pdivs-36">
          <mxGeometry width="50" height="50" relative="1" as="geometry">
            <mxPoint x="480" y="210" as="sourcePoint" />
            <mxPoint x="410" y="150" as="targetPoint" />
          </mxGeometry>
        </mxCell>
        <mxCell id="lQjQSpEwvedvhS4Pdivs-18" value="" style="endArrow=none;html=1;entryX=0.5;entryY=1;entryDx=0;entryDy=0;exitX=0.5;exitY=0;exitDx=0;exitDy=0;" edge="1" parent="lQjQSpEwvedvhS4Pdivs-1" source="lQjQSpEwvedvhS4Pdivs-2" target="lQjQSpEwvedvhS4Pdivs-35">
          <mxGeometry width="50" height="50" relative="1" as="geometry">
            <mxPoint x="490" y="210" as="sourcePoint" />
            <mxPoint x="485" y="140" as="targetPoint" />
          </mxGeometry>
        </mxCell>
        <mxCell id="lQjQSpEwvedvhS4Pdivs-19" value="" style="endArrow=none;html=1;entryX=1;entryY=1;entryDx=0;entryDy=0;exitX=0;exitY=0;exitDx=0;exitDy=0;" edge="1" parent="lQjQSpEwvedvhS4Pdivs-1" source="lQjQSpEwvedvhS4Pdivs-20" target="lQjQSpEwvedvhS4Pdivs-32">
          <mxGeometry width="50" height="50" relative="1" as="geometry">
            <mxPoint x="688" y="990.8600000000001" as="sourcePoint" />
            <mxPoint x="567.748737341529" y="954.1421356237308" as="targetPoint" />
          </mxGeometry>
        </mxCell>
        <mxCell id="lQjQSpEwvedvhS4Pdivs-20" value="完工日期" style="ellipse;whiteSpace=wrap;html=1;" vertex="1" parent="lQjQSpEwvedvhS4Pdivs-1">
          <mxGeometry x="623" y="890.0000000000001" width="70" height="40" as="geometry" />
        </mxCell>
        <mxCell id="lQjQSpEwvedvhS4Pdivs-27" value="使用者" style="rounded=0;whiteSpace=wrap;html=1;" vertex="1" parent="lQjQSpEwvedvhS4Pdivs-1">
          <mxGeometry x="40" y="210" width="120" height="60" as="geometry" />
        </mxCell>
        <mxCell id="lQjQSpEwvedvhS4Pdivs-28" value="登入" style="rhombus;whiteSpace=wrap;html=1;" vertex="1" parent="lQjQSpEwvedvhS4Pdivs-1">
          <mxGeometry x="247" y="210" width="100" height="60" as="geometry" />
        </mxCell>
        <mxCell id="lQjQSpEwvedvhS4Pdivs-29" value="" style="shape=link;html=1;exitX=0.973;exitY=0.503;exitDx=0;exitDy=0;entryX=0;entryY=0.5;entryDx=0;entryDy=0;exitPerimeter=0;" edge="1" parent="lQjQSpEwvedvhS4Pdivs-1" source="lQjQSpEwvedvhS4Pdivs-28" target="lQjQSpEwvedvhS4Pdivs-2">
          <mxGeometry width="50" height="50" relative="1" as="geometry">
            <mxPoint x="329.03" y="240" as="sourcePoint" />
            <mxPoint x="380.9699999999998" y="304.98" as="targetPoint" />
          </mxGeometry>
        </mxCell>
        <mxCell id="lQjQSpEwvedvhS4Pdivs-30" value="1" style="text;html=1;align=center;verticalAlign=middle;resizable=0;points=[];labelBackgroundColor=#ffffff;" vertex="1" connectable="0" parent="lQjQSpEwvedvhS4Pdivs-1">
          <mxGeometry x="229.99713893182468" y="220.0042693793481" as="geometry">
            <mxPoint x="-13.55" y="1.12" as="offset" />
          </mxGeometry>
        </mxCell>
        <mxCell id="lQjQSpEwvedvhS4Pdivs-31" value="項目內容" style="ellipse;whiteSpace=wrap;html=1;" vertex="1" parent="lQjQSpEwvedvhS4Pdivs-1">
          <mxGeometry x="648" y="836.46" width="70" height="35" as="geometry" />
        </mxCell>
        <mxCell id="lQjQSpEwvedvhS4Pdivs-32" value="合作項目" style="rounded=0;whiteSpace=wrap;html=1;" vertex="1" parent="lQjQSpEwvedvhS4Pdivs-1">
          <mxGeometry x="428" y="730" width="120" height="60" as="geometry" />
        </mxCell>
        <mxCell id="lQjQSpEwvedvhS4Pdivs-35" value="身分權限" style="ellipse;whiteSpace=wrap;html=1;" vertex="1" parent="lQjQSpEwvedvhS4Pdivs-1">
          <mxGeometry x="380" y="110" width="70" height="40" as="geometry" />
        </mxCell>
        <mxCell id="lQjQSpEwvedvhS4Pdivs-36" value="姓名" style="ellipse;whiteSpace=wrap;html=1;" vertex="1" parent="lQjQSpEwvedvhS4Pdivs-1">
          <mxGeometry x="305" y="120" width="70" height="40" as="geometry" />
        </mxCell>
        <mxCell id="lQjQSpEwvedvhS4Pdivs-37" value="" style="endArrow=none;html=1;entryX=0.314;entryY=0.967;entryDx=0;entryDy=0;exitX=0.661;exitY=0;exitDx=0;exitDy=0;exitPerimeter=0;entryPerimeter=0;" edge="1" parent="lQjQSpEwvedvhS4Pdivs-1" source="lQjQSpEwvedvhS4Pdivs-2" target="lQjQSpEwvedvhS4Pdivs-38">
          <mxGeometry width="50" height="50" relative="1" as="geometry">
            <mxPoint x="495" y="220" as="sourcePoint" />
            <mxPoint x="495" y="150" as="targetPoint" />
          </mxGeometry>
        </mxCell>
        <mxCell id="lQjQSpEwvedvhS4Pdivs-38" value="電話號碼" style="ellipse;whiteSpace=wrap;html=1;" vertex="1" parent="lQjQSpEwvedvhS4Pdivs-1">
          <mxGeometry x="460" y="110" width="70" height="40" as="geometry" />
        </mxCell>
        <mxCell id="lQjQSpEwvedvhS4Pdivs-39" value="姓" style="ellipse;whiteSpace=wrap;html=1;" vertex="1" parent="lQjQSpEwvedvhS4Pdivs-1">
          <mxGeometry x="220" y="80" width="70" height="40" as="geometry" />
        </mxCell>
        <mxCell id="lQjQSpEwvedvhS4Pdivs-40" value="" style="endArrow=none;html=1;entryX=0.905;entryY=0.808;entryDx=0;entryDy=0;exitX=0.252;exitY=0.075;exitDx=0;exitDy=0;exitPerimeter=0;entryPerimeter=0;" edge="1" parent="lQjQSpEwvedvhS4Pdivs-1" source="lQjQSpEwvedvhS4Pdivs-36" target="lQjQSpEwvedvhS4Pdivs-39">
          <mxGeometry width="50" height="50" relative="1" as="geometry">
            <mxPoint x="412.03999999999996" y="150" as="sourcePoint" />
            <mxPoint x="347" y="90" as="targetPoint" />
          </mxGeometry>
        </mxCell>
        <mxCell id="lQjQSpEwvedvhS4Pdivs-41" value="名" style="ellipse;whiteSpace=wrap;html=1;" vertex="1" parent="lQjQSpEwvedvhS4Pdivs-1">
          <mxGeometry x="305" y="50" width="70" height="40" as="geometry" />
        </mxCell>
        <mxCell id="lQjQSpEwvedvhS4Pdivs-42" value="" style="endArrow=none;html=1;entryX=0.5;entryY=1;entryDx=0;entryDy=0;exitX=0.5;exitY=0;exitDx=0;exitDy=0;" edge="1" parent="lQjQSpEwvedvhS4Pdivs-1" source="lQjQSpEwvedvhS4Pdivs-36" target="lQjQSpEwvedvhS4Pdivs-41">
          <mxGeometry width="50" height="50" relative="1" as="geometry">
            <mxPoint x="462.64" y="100" as="sourcePoint" />
            <mxPoint x="417" y="77" as="targetPoint" />
          </mxGeometry>
        </mxCell>
        <mxCell id="lQjQSpEwvedvhS4Pdivs-43" value="廠商" style="rounded=0;whiteSpace=wrap;html=1;" vertex="1" parent="lQjQSpEwvedvhS4Pdivs-1">
          <mxGeometry x="900.25" y="731.46" width="120" height="60" as="geometry" />
        </mxCell>
        <mxCell id="lQjQSpEwvedvhS4Pdivs-44" value="處理" style="rhombus;whiteSpace=wrap;html=1;" vertex="1" parent="lQjQSpEwvedvhS4Pdivs-1">
          <mxGeometry x="435" y="480" width="100" height="60" as="geometry" />
        </mxCell>
        <mxCell id="lQjQSpEwvedvhS4Pdivs-45" value="" style="group" vertex="1" connectable="0" parent="lQjQSpEwvedvhS4Pdivs-1">
          <mxGeometry x="540" y="920" width="80" height="50" as="geometry" />
        </mxCell>
        <mxCell id="lQjQSpEwvedvhS4Pdivs-46" value="" style="ellipse;whiteSpace=wrap;html=1;gradientColor=#ffffff;fillColor=none;" vertex="1" parent="lQjQSpEwvedvhS4Pdivs-45">
          <mxGeometry width="80" height="50" as="geometry" />
        </mxCell>
        <mxCell id="lQjQSpEwvedvhS4Pdivs-47" value="檢測日期" style="ellipse;whiteSpace=wrap;html=1;" vertex="1" parent="lQjQSpEwvedvhS4Pdivs-45">
          <mxGeometry x="5" y="5" width="70" height="40" as="geometry" />
        </mxCell>
        <mxCell id="lQjQSpEwvedvhS4Pdivs-48" value="" style="rounded=0;whiteSpace=wrap;html=1;fillColor=none;" vertex="1" parent="lQjQSpEwvedvhS4Pdivs-1">
          <mxGeometry x="893" y="723.96" width="134.5" height="75" as="geometry" />
        </mxCell>
        <mxCell id="lQjQSpEwvedvhS4Pdivs-49" value="" style="endArrow=none;html=1;exitX=0.335;exitY=0.021;exitDx=0;exitDy=0;entryX=0.871;entryY=0.986;entryDx=0;entryDy=0;entryPerimeter=0;exitPerimeter=0;" edge="1" parent="lQjQSpEwvedvhS4Pdivs-1" source="lQjQSpEwvedvhS4Pdivs-54">
          <mxGeometry width="50" height="50" relative="1" as="geometry">
            <mxPoint x="1156.25" y="795.42" as="sourcePoint" />
            <mxPoint x="1010.1495" y="798.96" as="targetPoint" />
          </mxGeometry>
        </mxCell>
        <mxCell id="lQjQSpEwvedvhS4Pdivs-50" value="合作次數" style="ellipse;whiteSpace=wrap;html=1;dashed=1;" vertex="1" parent="lQjQSpEwvedvhS4Pdivs-1">
          <mxGeometry x="1083" y="735.42" width="70" height="40" as="geometry" />
        </mxCell>
        <mxCell id="lQjQSpEwvedvhS4Pdivs-51" value="" style="endArrow=none;html=1;exitX=0;exitY=0.5;exitDx=0;exitDy=0;entryX=1;entryY=0.5;entryDx=0;entryDy=0;" edge="1" parent="lQjQSpEwvedvhS4Pdivs-1" source="lQjQSpEwvedvhS4Pdivs-50" target="lQjQSpEwvedvhS4Pdivs-48">
          <mxGeometry width="50" height="50" relative="1" as="geometry">
            <mxPoint x="1175.25" y="693.78" as="sourcePoint" />
            <mxPoint x="1112.26" y="731.46" as="targetPoint" />
          </mxGeometry>
        </mxCell>
        <mxCell id="lQjQSpEwvedvhS4Pdivs-52" value="" style="shape=link;html=1;exitX=0.5;exitY=1;exitDx=0;exitDy=0;" edge="1" parent="lQjQSpEwvedvhS4Pdivs-1" source="lQjQSpEwvedvhS4Pdivs-44">
          <mxGeometry width="50" height="50" relative="1" as="geometry">
            <mxPoint x="488" y="670" as="sourcePoint" />
            <mxPoint x="488" y="730" as="targetPoint" />
          </mxGeometry>
        </mxCell>
        <mxCell id="lQjQSpEwvedvhS4Pdivs-53" value="" style="group" vertex="1" connectable="0" parent="lQjQSpEwvedvhS4Pdivs-1">
          <mxGeometry x="1043" y="841.88" width="70" height="40" as="geometry" />
        </mxCell>
        <mxCell id="lQjQSpEwvedvhS4Pdivs-54" value="廠商名稱" style="ellipse;whiteSpace=wrap;html=1;" vertex="1" parent="lQjQSpEwvedvhS4Pdivs-53">
          <mxGeometry width="70" height="40" as="geometry" />
        </mxCell>
        <mxCell id="lQjQSpEwvedvhS4Pdivs-55" value="" style="endArrow=none;dashed=1;html=1;" edge="1" parent="lQjQSpEwvedvhS4Pdivs-53">
          <mxGeometry width="50" height="50" relative="1" as="geometry">
            <mxPoint x="15" y="33.12000000000012" as="sourcePoint" />
            <mxPoint x="55" y="33.12000000000012" as="targetPoint" />
          </mxGeometry>
        </mxCell>
        <mxCell id="lQjQSpEwvedvhS4Pdivs-56" value="" style="endArrow=none;html=1;entryX=0;entryY=0.5;entryDx=0;entryDy=0;exitX=1;exitY=0.5;exitDx=0;exitDy=0;" edge="1" parent="lQjQSpEwvedvhS4Pdivs-1" source="lQjQSpEwvedvhS4Pdivs-27" target="lQjQSpEwvedvhS4Pdivs-28">
          <mxGeometry width="50" height="50" relative="1" as="geometry">
            <mxPoint x="495" y="360.0000000000001" as="sourcePoint" />
            <mxPoint x="495" y="280.0000000000001" as="targetPoint" />
          </mxGeometry>
        </mxCell>
        <mxCell id="lQjQSpEwvedvhS4Pdivs-57" value="" style="group" vertex="1" connectable="0" parent="lQjQSpEwvedvhS4Pdivs-1">
          <mxGeometry x="684.25" y="723.96" width="117.5" height="75" as="geometry" />
        </mxCell>
        <mxCell id="lQjQSpEwvedvhS4Pdivs-58" value="" style="rhombus;whiteSpace=wrap;html=1;fillColor=none;" vertex="1" parent="lQjQSpEwvedvhS4Pdivs-57">
          <mxGeometry width="117.5" height="75" as="geometry" />
        </mxCell>
        <mxCell id="lQjQSpEwvedvhS4Pdivs-59" value="合作" style="rhombus;whiteSpace=wrap;html=1;" vertex="1" parent="lQjQSpEwvedvhS4Pdivs-57">
          <mxGeometry x="8.75" y="7.5" width="100" height="60" as="geometry" />
        </mxCell>
        <mxCell id="lQjQSpEwvedvhS4Pdivs-60" value="" style="shape=link;html=1;exitX=-0.055;exitY=0.508;exitDx=0;exitDy=0;exitPerimeter=0;" edge="1" parent="lQjQSpEwvedvhS4Pdivs-1" source="lQjQSpEwvedvhS4Pdivs-59" target="lQjQSpEwvedvhS4Pdivs-32">
          <mxGeometry width="50" height="50" relative="1" as="geometry">
            <mxPoint x="683" y="760" as="sourcePoint" />
            <mxPoint x="563" y="750" as="targetPoint" />
          </mxGeometry>
        </mxCell>
        <mxCell id="lQjQSpEwvedvhS4Pdivs-61" value="" style="shape=link;html=1;" edge="1" parent="lQjQSpEwvedvhS4Pdivs-1" source="lQjQSpEwvedvhS4Pdivs-48" target="lQjQSpEwvedvhS4Pdivs-58">
          <mxGeometry width="50" height="50" relative="1" as="geometry">
            <mxPoint x="961" y="761" as="sourcePoint" />
            <mxPoint x="801.75" y="760.7834586466166" as="targetPoint" />
          </mxGeometry>
        </mxCell>
        <mxCell id="lQjQSpEwvedvhS4Pdivs-62" value="M" style="text;html=1;align=center;verticalAlign=middle;resizable=0;points=[];labelBackgroundColor=#ffffff;" vertex="1" connectable="0" parent="lQjQSpEwvedvhS4Pdivs-1">
          <mxGeometry x="519.9971389318247" y="640.0042693793481" as="geometry">
            <mxPoint x="-13.55" y="1.12" as="offset" />
          </mxGeometry>
        </mxCell>
        <mxCell id="lQjQSpEwvedvhS4Pdivs-63" value="N&lt;br&gt;" style="text;html=1;align=center;verticalAlign=middle;resizable=0;points=[];labelBackgroundColor=#ffffff;" vertex="1" connectable="0" parent="lQjQSpEwvedvhS4Pdivs-1">
          <mxGeometry x="862.9971389318247" y="735.4242693793481" as="geometry">
            <mxPoint x="-13.55" y="1.12" as="offset" />
          </mxGeometry>
        </mxCell>
        <mxCell id="lQjQSpEwvedvhS4Pdivs-64" value="1" style="text;html=1;align=center;verticalAlign=middle;resizable=0;points=[];labelBackgroundColor=#ffffff;" vertex="1" connectable="0" parent="lQjQSpEwvedvhS4Pdivs-1">
          <mxGeometry x="312.9971389318247" y="710.0042693793481" as="geometry">
            <mxPoint x="294.45" y="29.12" as="offset" />
          </mxGeometry>
        </mxCell>
        <mxCell id="lQjQSpEwvedvhS4Pdivs-65" value="廠商代表" style="ellipse;whiteSpace=wrap;html=1;" vertex="1" parent="lQjQSpEwvedvhS4Pdivs-1">
          <mxGeometry x="1083" y="610" width="70" height="40" as="geometry" />
        </mxCell>
        <mxCell id="lQjQSpEwvedvhS4Pdivs-66" value="&lt;font style=&quot;font-size: 24px&quot;&gt;d&lt;/font&gt;" style="ellipse;whiteSpace=wrap;html=1;aspect=fixed;" vertex="1" parent="lQjQSpEwvedvhS4Pdivs-1">
          <mxGeometry x="838" y="230" width="27" height="27" as="geometry" />
        </mxCell>
        <mxCell id="lQjQSpEwvedvhS4Pdivs-67" value="負責人" style="rounded=0;whiteSpace=wrap;html=1;" vertex="1" parent="lQjQSpEwvedvhS4Pdivs-1">
          <mxGeometry x="598" y="430" width="120" height="60" as="geometry" />
        </mxCell>
        <mxCell id="lQjQSpEwvedvhS4Pdivs-68" value="一般員工" style="rounded=0;whiteSpace=wrap;html=1;" vertex="1" parent="lQjQSpEwvedvhS4Pdivs-1">
          <mxGeometry x="1008" y="430" width="120" height="60" as="geometry" />
        </mxCell>
        <mxCell id="lQjQSpEwvedvhS4Pdivs-69" value="" style="shape=link;html=1;exitX=1;exitY=0.5;exitDx=0;exitDy=0;entryX=0;entryY=0.5;entryDx=0;entryDy=0;" edge="1" parent="lQjQSpEwvedvhS4Pdivs-1" source="lQjQSpEwvedvhS4Pdivs-2" target="lQjQSpEwvedvhS4Pdivs-66">
          <mxGeometry width="50" height="50" relative="1" as="geometry">
            <mxPoint x="885" y="360" as="sourcePoint" />
            <mxPoint x="835" y="340" as="targetPoint" />
          </mxGeometry>
        </mxCell>
        <mxCell id="lQjQSpEwvedvhS4Pdivs-70" value="1" style="text;html=1;align=center;verticalAlign=middle;resizable=0;points=[];labelBackgroundColor=#ffffff;" vertex="1" connectable="0" parent="lQjQSpEwvedvhS4Pdivs-1">
          <mxGeometry x="369.9971389318247" y="220.0042693793481" as="geometry">
            <mxPoint x="-13.55" y="1.12" as="offset" />
          </mxGeometry>
        </mxCell>
        <mxCell id="lQjQSpEwvedvhS4Pdivs-71" value="" style="endArrow=none;html=1;exitX=0;exitY=0.5;exitDx=0;exitDy=0;entryX=0;entryY=1;entryDx=0;entryDy=0;exitPerimeter=0;" edge="1" parent="lQjQSpEwvedvhS4Pdivs-1" source="PFAD0Id6p6qFi5eGhSBW-5" target="lQjQSpEwvedvhS4Pdivs-66">
          <mxGeometry width="50" height="50" relative="1" as="geometry">
            <mxPoint x="535" y="170" as="sourcePoint" />
            <mxPoint x="839" y="256" as="targetPoint" />
          </mxGeometry>
        </mxCell>
        <mxCell id="lQjQSpEwvedvhS4Pdivs-72" value="" style="endArrow=none;html=1;exitX=0.5;exitY=0;exitDx=0;exitDy=0;entryX=1;entryY=1;entryDx=0;entryDy=0;" edge="1" parent="lQjQSpEwvedvhS4Pdivs-1" source="lQjQSpEwvedvhS4Pdivs-68" target="lQjQSpEwvedvhS4Pdivs-66">
          <mxGeometry width="50" height="50" relative="1" as="geometry">
            <mxPoint x="545" y="180" as="sourcePoint" />
            <mxPoint x="632" y="180" as="targetPoint" />
          </mxGeometry>
        </mxCell>
        <mxCell id="lQjQSpEwvedvhS4Pdivs-78" value="" style="endArrow=none;html=1;entryX=0.5;entryY=0;entryDx=0;entryDy=0;exitX=0.5;exitY=1;exitDx=0;exitDy=0;" edge="1" parent="lQjQSpEwvedvhS4Pdivs-1" source="lQjQSpEwvedvhS4Pdivs-2" target="lQjQSpEwvedvhS4Pdivs-44">
          <mxGeometry width="50" height="50" relative="1" as="geometry">
            <mxPoint x="302.9999999999998" y="520" as="sourcePoint" />
            <mxPoint x="484.3933982822018" y="345.6066017177982" as="targetPoint" />
          </mxGeometry>
        </mxCell>
        <mxCell id="lQjQSpEwvedvhS4Pdivs-79" value="N&lt;br&gt;" style="text;html=1;align=center;verticalAlign=middle;resizable=0;points=[];labelBackgroundColor=#ffffff;" vertex="1" connectable="0" parent="lQjQSpEwvedvhS4Pdivs-1">
          <mxGeometry x="519.9971389318247" y="530.0042693793481" as="geometry">
            <mxPoint x="-24.55" y="-142.88" as="offset" />
          </mxGeometry>
        </mxCell>
        <mxCell id="lQjQSpEwvedvhS4Pdivs-80" value="" style="endArrow=none;html=1;entryX=0.75;entryY=0;entryDx=0;entryDy=0;exitX=0;exitY=0.5;exitDx=0;exitDy=0;" edge="1" parent="lQjQSpEwvedvhS4Pdivs-1" source="lQjQSpEwvedvhS4Pdivs-65" target="lQjQSpEwvedvhS4Pdivs-48">
          <mxGeometry width="50" height="50" relative="1" as="geometry">
            <mxPoint x="349.4308053547363" y="887.1384934127409" as="sourcePoint" />
            <mxPoint x="452.9999999999998" y="800" as="targetPoint" />
          </mxGeometry>
        </mxCell>
        <mxCell id="PFAD0Id6p6qFi5eGhSBW-4" value="" style="strokeWidth=2;html=1;shape=mxgraph.flowchart.annotation_1;align=left;pointerEvents=1;rotation=-135;" vertex="1" parent="lQjQSpEwvedvhS4Pdivs-1">
          <mxGeometry x="924.39" y="299.39" width="20" height="30" as="geometry" />
        </mxCell>
        <mxCell id="PFAD0Id6p6qFi5eGhSBW-5" value="" style="strokeWidth=2;html=1;shape=mxgraph.flowchart.annotation_1;align=left;pointerEvents=1;rotation=-45;" vertex="1" parent="lQjQSpEwvedvhS4Pdivs-1">
          <mxGeometry x="763" y="299.39" width="20" height="30" as="geometry" />
        </mxCell>
        <mxCell id="PFAD0Id6p6qFi5eGhSBW-7" value="" style="endArrow=none;html=1;exitX=0.5;exitY=0;exitDx=0;exitDy=0;entryX=0;entryY=0.5;entryDx=0;entryDy=0;entryPerimeter=0;" edge="1" parent="lQjQSpEwvedvhS4Pdivs-1" source="lQjQSpEwvedvhS4Pdivs-67" target="PFAD0Id6p6qFi5eGhSBW-5">
          <mxGeometry width="50" height="50" relative="1" as="geometry">
            <mxPoint x="658" y="430" as="sourcePoint" />
            <mxPoint x="841.9540584539818" y="253.04594154601818" as="targetPoint" />
          </mxGeometry>
        </mxCell>
        <mxCell id="PFAD0Id6p6qFi5eGhSBW-8" value="&lt;font&gt;&lt;font style=&quot;font-size: 14px&quot;&gt;※員工帳戶根據身分權限&lt;br&gt;可執行不同的處理&lt;br&gt;Ex:權限 S 可新增和減少帳戶&lt;/font&gt;&lt;br&gt;&lt;/font&gt;" style="text;html=1;align=center;verticalAlign=middle;resizable=0;points=[];autosize=1;" vertex="1" parent="lQjQSpEwvedvhS4Pdivs-1">
          <mxGeometry x="230" y="485" width="190" height="50" as="geometry" />
        </mxCell>
        <mxCell id="PFAD0Id6p6qFi5eGhSBW-10" value="密碼" style="ellipse;whiteSpace=wrap;html=1;" vertex="1" parent="lQjQSpEwvedvhS4Pdivs-1">
          <mxGeometry x="540" y="110" width="70" height="40" as="geometry" />
        </mxCell>
        <mxCell id="PFAD0Id6p6qFi5eGhSBW-11" value="FLAG" style="ellipse;whiteSpace=wrap;html=1;" vertex="1" parent="lQjQSpEwvedvhS4Pdivs-1">
          <mxGeometry x="598" y="150" width="70" height="40" as="geometry" />
        </mxCell>
        <mxCell id="PFAD0Id6p6qFi5eGhSBW-14" value="" style="endArrow=none;html=1;entryX=0.75;entryY=0;entryDx=0;entryDy=0;exitX=0.343;exitY=1.025;exitDx=0;exitDy=0;exitPerimeter=0;" edge="1" parent="lQjQSpEwvedvhS4Pdivs-1" source="PFAD0Id6p6qFi5eGhSBW-10" target="lQjQSpEwvedvhS4Pdivs-2">
          <mxGeometry width="50" height="50" relative="1" as="geometry">
            <mxPoint x="514.3199999999999" y="220" as="sourcePoint" />
            <mxPoint x="491.98" y="158.67999999999995" as="targetPoint" />
          </mxGeometry>
        </mxCell>
        <mxCell id="PFAD0Id6p6qFi5eGhSBW-17" value="" style="endArrow=none;html=1;entryX=1;entryY=0;entryDx=0;entryDy=0;exitX=0;exitY=0.5;exitDx=0;exitDy=0;" edge="1" parent="lQjQSpEwvedvhS4Pdivs-1" source="PFAD0Id6p6qFi5eGhSBW-11" target="lQjQSpEwvedvhS4Pdivs-2">
          <mxGeometry width="50" height="50" relative="1" as="geometry">
            <mxPoint x="574.01" y="161" as="sourcePoint" />
            <mxPoint x="525" y="220" as="targetPoint" />
          </mxGeometry>
        </mxCell>
        <mxCell id="PFAD0Id6p6qFi5eGhSBW-18" value="&lt;span&gt;FLAG = 0&lt;/span&gt;" style="text;html=1;align=center;verticalAlign=middle;resizable=0;points=[];autosize=1;" vertex="1" parent="lQjQSpEwvedvhS4Pdivs-1">
          <mxGeometry x="973" y="330" width="70" height="20" as="geometry" />
        </mxCell>
        <mxCell id="PFAD0Id6p6qFi5eGhSBW-19" value="&lt;span&gt;FLAG = 1&lt;/span&gt;" style="text;html=1;align=center;verticalAlign=middle;resizable=0;points=[];autosize=1;" vertex="1" parent="lQjQSpEwvedvhS4Pdivs-1">
          <mxGeometry x="648" y="338" width="70" height="20" as="geometry" />
        </mxCell>
        <mxCell id="PFAD0Id6p6qFi5eGhSBW-20" value="&lt;meta charset=&quot;utf-8&quot;&gt;&#xa;&#xa;&lt;span style=&quot;color: rgb(0, 0, 0); font-family: helvetica; font-size: 12px; font-style: normal; font-weight: 400; letter-spacing: normal; text-align: center; text-indent: 0px; text-transform: none; word-spacing: 0px; background-color: rgb(248, 249, 250); display: inline; float: none;&quot;&gt;FLAG&lt;/span&gt;" style="text;whiteSpace=wrap;html=1;" vertex="1" parent="lQjQSpEwvedvhS4Pdivs-1">
          <mxGeometry x="684.25" y="180" width="60" height="60" as="geometry" />
        </mxCell>
        <mxCell id="5p19hZeRJtd56Mz-ybrj-0" value="" style="endArrow=none;html=1;exitX=0.335;exitY=0.021;exitDx=0;exitDy=0;entryX=0.5;entryY=1;entryDx=0;entryDy=0;exitPerimeter=0;fontStyle=1" edge="1" parent="lQjQSpEwvedvhS4Pdivs-1" source="5p19hZeRJtd56Mz-ybrj-2" target="lQjQSpEwvedvhS4Pdivs-48">
          <mxGeometry width="50" height="50" relative="1" as="geometry">
            <mxPoint x="1056.1" y="856.4599999999999" as="sourcePoint" />
            <mxPoint x="909.9995" y="860" as="targetPoint" />
          </mxGeometry>
        </mxCell>
        <mxCell id="5p19hZeRJtd56Mz-ybrj-1" value="" style="group;fontStyle=1" vertex="1" connectable="0" parent="lQjQSpEwvedvhS4Pdivs-1">
          <mxGeometry x="942.85" y="902.92" width="70" height="40" as="geometry" />
        </mxCell>
        <mxCell id="5p19hZeRJtd56Mz-ybrj-2" value="代表電話" style="ellipse;whiteSpace=wrap;html=1;" vertex="1" parent="5p19hZeRJtd56Mz-ybrj-1">
          <mxGeometry width="70" height="40" as="geometry" />
        </mxCell>
      </root>
    </mxGraphModel>
  </diagram>
  <diagram id="GLBi1vGx0Ax7mfuxNR1v" name="Page-4">
    <mxGraphModel dx="1422" dy="715" grid="1" gridSize="10" guides="1" tooltips="1" connect="1" arrows="1" fold="1" page="1" pageScale="1" pageWidth="827" pageHeight="1169" math="0" shadow="0">
      <root>
        <mxCell id="aasbFaFPDUyZK-vuGOYL-0" />
        <mxCell id="aasbFaFPDUyZK-vuGOYL-1" parent="aasbFaFPDUyZK-vuGOYL-0" />
        <mxCell id="aasbFaFPDUyZK-vuGOYL-2" value="&lt;u&gt;&lt;font style=&quot;font-size: 14px&quot;&gt;EmployeeNo&lt;/font&gt;&lt;/u&gt;" style="rounded=0;whiteSpace=wrap;html=1;" parent="aasbFaFPDUyZK-vuGOYL-1" vertex="1">
          <mxGeometry x="120" y="80" width="120" height="40" as="geometry" />
        </mxCell>
        <mxCell id="aasbFaFPDUyZK-vuGOYL-3" value="&lt;font style=&quot;font-size: 14px&quot;&gt;FirstName&lt;/font&gt;" style="rounded=0;whiteSpace=wrap;html=1;" parent="aasbFaFPDUyZK-vuGOYL-1" vertex="1">
          <mxGeometry x="360" y="80" width="120" height="40" as="geometry" />
        </mxCell>
        <mxCell id="aasbFaFPDUyZK-vuGOYL-4" value="&lt;font style=&quot;font-size: 14px&quot;&gt;LastName&lt;/font&gt;" style="rounded=0;whiteSpace=wrap;html=1;" parent="aasbFaFPDUyZK-vuGOYL-1" vertex="1">
          <mxGeometry x="480" y="80" width="120" height="40" as="geometry" />
        </mxCell>
        <mxCell id="aasbFaFPDUyZK-vuGOYL-5" value="&lt;font style=&quot;font-size: 14px&quot;&gt;Authority&lt;/font&gt;" style="rounded=0;whiteSpace=wrap;html=1;" parent="aasbFaFPDUyZK-vuGOYL-1" vertex="1">
          <mxGeometry x="720" y="80" width="120" height="40" as="geometry" />
        </mxCell>
        <mxCell id="aasbFaFPDUyZK-vuGOYL-6" value="&lt;font style=&quot;font-size: 14px&quot;&gt;Flag_Leader&lt;/font&gt;" style="rounded=0;whiteSpace=wrap;html=1;" parent="aasbFaFPDUyZK-vuGOYL-1" vertex="1">
          <mxGeometry x="840" y="80" width="120" height="40" as="geometry" />
        </mxCell>
        <mxCell id="aasbFaFPDUyZK-vuGOYL-10" value="&lt;font style=&quot;font-size: 36px&quot;&gt;Employee Account&lt;/font&gt;" style="text;html=1;align=center;verticalAlign=middle;resizable=0;points=[];autosize=1;" parent="aasbFaFPDUyZK-vuGOYL-1" vertex="1">
          <mxGeometry x="80" y="40" width="310" height="30" as="geometry" />
        </mxCell>
        <mxCell id="aasbFaFPDUyZK-vuGOYL-11" value="&lt;font style=&quot;font-size: 36px&quot;&gt;Cooperate Item&amp;nbsp;&lt;/font&gt;" style="text;html=1;align=center;verticalAlign=middle;resizable=0;points=[];autosize=1;" parent="aasbFaFPDUyZK-vuGOYL-1" vertex="1">
          <mxGeometry x="80" y="240" width="270" height="30" as="geometry" />
        </mxCell>
        <mxCell id="aasbFaFPDUyZK-vuGOYL-12" value="&lt;span style=&quot;font-size: 14px&quot;&gt;&lt;u&gt;ProductName&lt;/u&gt;&lt;/span&gt;" style="rounded=0;whiteSpace=wrap;html=1;" parent="aasbFaFPDUyZK-vuGOYL-1" vertex="1">
          <mxGeometry x="120" y="280" width="120" height="40" as="geometry" />
        </mxCell>
        <mxCell id="aasbFaFPDUyZK-vuGOYL-13" value="&lt;font style=&quot;font-size: 14px&quot;&gt;Price&lt;/font&gt;" style="rounded=0;whiteSpace=wrap;html=1;" parent="aasbFaFPDUyZK-vuGOYL-1" vertex="1">
          <mxGeometry x="240" y="280" width="120" height="40" as="geometry" />
        </mxCell>
        <mxCell id="aasbFaFPDUyZK-vuGOYL-14" value="&lt;font style=&quot;font-size: 14px&quot;&gt;SignDate&lt;/font&gt;" style="rounded=0;whiteSpace=wrap;html=1;" parent="aasbFaFPDUyZK-vuGOYL-1" vertex="1">
          <mxGeometry x="360" y="280" width="120" height="40" as="geometry" />
        </mxCell>
        <mxCell id="aasbFaFPDUyZK-vuGOYL-15" value="&lt;font style=&quot;font-size: 14px&quot;&gt;DetectDate&lt;/font&gt;" style="rounded=0;whiteSpace=wrap;html=1;" parent="aasbFaFPDUyZK-vuGOYL-1" vertex="1">
          <mxGeometry x="620" y="280" width="120" height="40" as="geometry" />
        </mxCell>
        <mxCell id="aasbFaFPDUyZK-vuGOYL-16" value="CompletionDate" style="rounded=0;whiteSpace=wrap;html=1;" parent="aasbFaFPDUyZK-vuGOYL-1" vertex="1">
          <mxGeometry x="740" y="280" width="120" height="40" as="geometry" />
        </mxCell>
        <mxCell id="aasbFaFPDUyZK-vuGOYL-17" value="Content" style="rounded=0;whiteSpace=wrap;html=1;" parent="aasbFaFPDUyZK-vuGOYL-1" vertex="1">
          <mxGeometry x="860" y="280" width="120" height="40" as="geometry" />
        </mxCell>
        <mxCell id="aasbFaFPDUyZK-vuGOYL-18" value="&lt;font style=&quot;font-size: 14px&quot;&gt;PhoneNumber&lt;/font&gt;" style="rounded=0;whiteSpace=wrap;html=1;" parent="aasbFaFPDUyZK-vuGOYL-1" vertex="1">
          <mxGeometry x="600" y="80" width="120" height="40" as="geometry" />
        </mxCell>
        <mxCell id="aasbFaFPDUyZK-vuGOYL-19" value="&lt;span style=&quot;font-size: 14px&quot;&gt;CommencementDate&lt;/span&gt;" style="rounded=0;whiteSpace=wrap;html=1;" parent="aasbFaFPDUyZK-vuGOYL-1" vertex="1">
          <mxGeometry x="480" y="280" width="140" height="40" as="geometry" />
        </mxCell>
        <mxCell id="aasbFaFPDUyZK-vuGOYL-20" value="&lt;font style=&quot;font-size: 36px&quot;&gt;Manufacturer&lt;/font&gt;" style="text;html=1;align=center;verticalAlign=middle;resizable=0;points=[];autosize=1;" parent="aasbFaFPDUyZK-vuGOYL-1" vertex="1">
          <mxGeometry x="1041" y="240" width="230" height="30" as="geometry" />
        </mxCell>
        <mxCell id="aasbFaFPDUyZK-vuGOYL-21" style="edgeStyle=orthogonalEdgeStyle;rounded=0;orthogonalLoop=1;jettySize=auto;html=1;entryX=0.75;entryY=1;entryDx=0;entryDy=0;" parent="aasbFaFPDUyZK-vuGOYL-1" source="aasbFaFPDUyZK-vuGOYL-22" target="aasbFaFPDUyZK-vuGOYL-12" edge="1">
          <mxGeometry relative="1" as="geometry">
            <Array as="points">
              <mxPoint x="1141" y="360" />
              <mxPoint x="210" y="360" />
            </Array>
          </mxGeometry>
        </mxCell>
        <mxCell id="aasbFaFPDUyZK-vuGOYL-22" value="&lt;span style=&quot;font-size: 14px&quot;&gt;&lt;u&gt;ProductName&lt;/u&gt;&lt;/span&gt;" style="rounded=0;whiteSpace=wrap;html=1;" parent="aasbFaFPDUyZK-vuGOYL-1" vertex="1">
          <mxGeometry x="1081" y="280" width="120" height="40" as="geometry" />
        </mxCell>
        <mxCell id="aasbFaFPDUyZK-vuGOYL-23" value="&lt;font style=&quot;font-size: 14px&quot;&gt;PartnerName&lt;/font&gt;" style="rounded=0;whiteSpace=wrap;html=1;" parent="aasbFaFPDUyZK-vuGOYL-1" vertex="1">
          <mxGeometry x="1201" y="280" width="120" height="40" as="geometry" />
        </mxCell>
        <mxCell id="aasbFaFPDUyZK-vuGOYL-24" value="&lt;span style=&quot;font-size: 14px&quot;&gt;PhoneNumber&lt;br&gt;&lt;/span&gt;" style="rounded=0;whiteSpace=wrap;html=1;" parent="aasbFaFPDUyZK-vuGOYL-1" vertex="1">
          <mxGeometry x="1321" y="280" width="120" height="40" as="geometry" />
        </mxCell>
        <mxCell id="aasbFaFPDUyZK-vuGOYL-30" value="&lt;font style=&quot;font-size: 36px&quot;&gt;Relation-Deal&lt;/font&gt;" style="text;html=1;align=center;verticalAlign=middle;resizable=0;points=[];autosize=1;" parent="aasbFaFPDUyZK-vuGOYL-1" vertex="1">
          <mxGeometry x="1020" y="40" width="230" height="30" as="geometry" />
        </mxCell>
        <mxCell id="aasbFaFPDUyZK-vuGOYL-31" style="edgeStyle=orthogonalEdgeStyle;rounded=0;orthogonalLoop=1;jettySize=auto;html=1;entryX=0.5;entryY=1;entryDx=0;entryDy=0;" parent="aasbFaFPDUyZK-vuGOYL-1" source="aasbFaFPDUyZK-vuGOYL-32" target="aasbFaFPDUyZK-vuGOYL-2" edge="1">
          <mxGeometry relative="1" as="geometry">
            <Array as="points">
              <mxPoint x="1120" y="160" />
              <mxPoint x="180" y="160" />
            </Array>
          </mxGeometry>
        </mxCell>
        <mxCell id="aasbFaFPDUyZK-vuGOYL-32" value="&lt;u&gt;&lt;font style=&quot;font-size: 14px&quot;&gt;EmployeeNo&lt;/font&gt;&lt;/u&gt;" style="rounded=0;whiteSpace=wrap;html=1;" parent="aasbFaFPDUyZK-vuGOYL-1" vertex="1">
          <mxGeometry x="1060" y="80" width="120" height="40" as="geometry" />
        </mxCell>
        <mxCell id="aasbFaFPDUyZK-vuGOYL-33" style="edgeStyle=orthogonalEdgeStyle;rounded=0;orthogonalLoop=1;jettySize=auto;html=1;entryX=0.25;entryY=1;entryDx=0;entryDy=0;" parent="aasbFaFPDUyZK-vuGOYL-1" source="aasbFaFPDUyZK-vuGOYL-34" target="aasbFaFPDUyZK-vuGOYL-12" edge="1">
          <mxGeometry relative="1" as="geometry">
            <Array as="points">
              <mxPoint x="1240" y="200" />
              <mxPoint x="40" y="200" />
              <mxPoint x="40" y="360" />
              <mxPoint x="150" y="360" />
            </Array>
          </mxGeometry>
        </mxCell>
        <mxCell id="aasbFaFPDUyZK-vuGOYL-34" value="&lt;span style=&quot;font-size: 14px&quot;&gt;&lt;u&gt;ProductName&lt;/u&gt;&lt;/span&gt;" style="rounded=0;whiteSpace=wrap;html=1;" parent="aasbFaFPDUyZK-vuGOYL-1" vertex="1">
          <mxGeometry x="1180" y="80" width="120" height="40" as="geometry" />
        </mxCell>
        <mxCell id="aasbFaFPDUyZK-vuGOYL-35" value="&lt;font style=&quot;font-size: 36px&quot;&gt;Multivalue-DetectDate&lt;/font&gt;" style="text;html=1;align=center;verticalAlign=middle;resizable=0;points=[];autosize=1;" parent="aasbFaFPDUyZK-vuGOYL-1" vertex="1">
          <mxGeometry x="80" y="440" width="370" height="30" as="geometry" />
        </mxCell>
        <mxCell id="aasbFaFPDUyZK-vuGOYL-36" style="edgeStyle=orthogonalEdgeStyle;rounded=0;orthogonalLoop=1;jettySize=auto;html=1;entryX=0.5;entryY=1;entryDx=0;entryDy=0;" parent="aasbFaFPDUyZK-vuGOYL-1" source="aasbFaFPDUyZK-vuGOYL-37" target="aasbFaFPDUyZK-vuGOYL-12" edge="1">
          <mxGeometry relative="1" as="geometry">
            <Array as="points">
              <mxPoint x="180" y="560" />
              <mxPoint x="40" y="560" />
              <mxPoint x="40" y="400" />
              <mxPoint x="180" y="400" />
            </Array>
          </mxGeometry>
        </mxCell>
        <mxCell id="aasbFaFPDUyZK-vuGOYL-37" value="&lt;span style=&quot;font-size: 14px&quot;&gt;&lt;u&gt;ProductName&lt;/u&gt;&lt;/span&gt;" style="rounded=0;whiteSpace=wrap;html=1;" parent="aasbFaFPDUyZK-vuGOYL-1" vertex="1">
          <mxGeometry x="120" y="480" width="120" height="40" as="geometry" />
        </mxCell>
        <mxCell id="aasbFaFPDUyZK-vuGOYL-38" value="&lt;font style=&quot;font-size: 14px&quot;&gt;DetectDate&lt;/font&gt;" style="rounded=0;whiteSpace=wrap;html=1;" parent="aasbFaFPDUyZK-vuGOYL-1" vertex="1">
          <mxGeometry x="240" y="480" width="120" height="40" as="geometry" />
        </mxCell>
        <mxCell id="jqRaROuMU-FVU6ZY-FPP-0" value="&lt;font style=&quot;font-size: 14px&quot;&gt;Password&lt;/font&gt;" style="rounded=0;whiteSpace=wrap;html=1;" parent="aasbFaFPDUyZK-vuGOYL-1" vertex="1">
          <mxGeometry x="240" y="80" width="120" height="40" as="geometry" />
        </mxCell>
      </root>
    </mxGraphModel>
  </diagram>
</mxfile>
